<svg xmlns="http://www.w3.org/2000/svg" viewBox="0 0 922 699"><defs><style>.cls-1{fill:#960}.cls-1,.cls-2,.cls-5{stroke:#000;stroke-miterlimit:10}.cls-2{fill:#069}.cls-3,.cls-7{font-size:24px;font-family:MyriadPro-Regular,Myriad Pro}.cls-3{fill:#fff}.cls-4,.cls-5{fill:none}</style></defs><g id="Layer_2" data-name="Layer 2"><g id="Layer_1-2" data-name="Layer 1"><circle class="cls-1" cx="534.5" cy="58.5" r="58"/><circle class="cls-2" cx="428.5" cy="443.5" r="58"/><circle class="cls-2" cx="608.5" cy="443.5" r="58"/><circle class="cls-2" cx="58.5" cy="640.5" r="58"/><circle class="cls-2" cx="266.5" cy="640.5" r="58"/><text class="cls-3" transform="translate(535 61.85)">2</text><text class="cls-3" transform="translate(422.5 453.5)">12</text><text class="cls-3" transform="translate(598.5 453.5)">25</text><text class="cls-3" transform="translate(48.5 650.5)">55</text><text class="cls-3" transform="translate(256.85 652.59)">70</text><path class="cls-4" d="M486 100l-100 96M572 103l139 87M503 107l-133 99M363 293l59 103M486 91L194 406M486 100l-100 96M477 230h-1M486 100h-1M386 196l99-96M370 288l46 98M149 495l-61 88M199 496l58 87M199 496l101 151M479 74c-61.19 0-123 54.27-123 108"/><path class="cls-5" d="M486.5 91.5l-116 115M583.5 90.5l128 100M777.5 283.5l76 114M705.5 287.5l-81 98M363.5 293.5l52 92M296.5 281.5l-103 124M208.5 483.5l48 99M129.5 480.5l-71 102"/><circle class="cls-1" cx="174.5" cy="443.5" r="58"/><text class="cls-3" transform="translate(164.5 453.5)">17</text><circle class="cls-1" cx="337.5" cy="240.5" r="58"/><circle class="cls-1" cx="739.5" cy="240.5" r="58"/><text class="cls-3" transform="translate(331.3 245.19)">7</text><text class="cls-3" transform="translate(729.5 250.5)">10</text><circle class="cls-2" cx="863.5" cy="443.5" r="58"/><text class="cls-3" transform="translate(853.89 453.33)">50</text><path fill="#fff" d="M427 562h46v19h-46z"/><text class="cls-7" transform="translate(730.96 40)"><tspan letter-spacing="-.03em">P</tspan><tspan x="12.14" y="0" letter-spacing="0">a</tspan><tspan x="23.71" y="0" letter-spacing="-.01em">r</tspan><tspan x="31.32" y="0">e</tspan><tspan x="43.34" y="0" letter-spacing="0">n</tspan><tspan x="56.57" y="0">t node</tspan></text><text class="cls-7" transform="translate(730.64 78.04)">Child node</text><ellipse class="cls-1" cx="703.5" cy="30" rx="10" ry="10.5"/><ellipse class="cls-2" cx="703.5" cy="68" rx="10" ry="10.5"/></g></g></svg>