<svg xmlns="http://www.w3.org/2000/svg" xmlns:xlink="http://www.w3.org/1999/xlink" viewBox="0 0 436 646"><defs><symbol id="Gerbera" data-name="Gerbera" viewBox="0 0 46.53 46.3"><path class="cls-1" d="M.29 0h46.07v46.24H.29z"/><path class="cls-180" d="M7.55 16.64C3 15.52 2 16.65 2 16.65a6.94 6.94 0 002.69 2.41c2.42.12 5.24.45 7.1.7a52.78 52.78 0 01-4.24-3.12zM46.35 22a45.42 45.42 0 00-5.35-.65c-1 .82-4.66 1.5-7.59 1.93a21.49 21.49 0 017.31 1.89c2.2-.62 6.77-2.09 5.63-3.17z"/><path class="cls-181" d="M30.31 23.74v.31l.08.06a3.53 3.53 0 011-.56l-.9.11z"/><path class="cls-180" d="M41.06 21.08c1.17-.24 3.38-.87 1.52-1.92a11.19 11.19 0 00-5.29-1.26c-1.87 1.26-3.57 2.28-3.77 2.4a33.72 33.72 0 017.54.78zM31.27 16.74l-.78.8a48.6 48.6 0 0110-4.4c.85-1 2.59-3.25.1-2.74a33.39 33.39 0 00-3.45 1l-.47.65z"/><path class="cls-182" d="M22.82 4A22.82 22.82 0 0124 13.64l.18-.91c.55-1.54 1-2.81 1.46-3.86-.54-3.34-2.43-13.82-3.83-6.08A3 3 0 0122.82 4z"/><path class="cls-180" d="M20 9c0-1 .08-1.83.16-2.58-.35-.89-.93-1.68-1.87-1.69.28.64.56 1.39.82 2.15z"/><path class="cls-182" d="M16.17 5.28c.43.32 2 4.37 3.32 7.77l1.09 2.18A27.52 27.52 0 0120 9.78c-.24-.87-.55-1.92-.9-2.94a28.7 28.7 0 00-.82-2.15c-.87-2-1.82-3-2.48-.58l-.13 1.28.09.18a.91.91 0 01.41-.29z"/><path class="cls-180" d="M14.26 17.71a14.59 14.59 0 01-1.79-2.21c-3.1-3-7.76-7.34-6.52-4.35a9.67 9.67 0 001.2 2.43c1.91 1 4.31 2.46 6.31 3.74z"/><path class="cls-182" d="M6.4 21.68c-.9-.37-1.48-.68-1.48-.68-3.87-1.94 4.67-.68 9.48.13a17.27 17.27 0 01-2.58-1.41c-1.86-.25-4.68-.58-7.1-.7-4-.2-6.89.18-2.58 2.45a37.41 37.41 0 014.26.21z"/><path class="cls-181" d="M13 23.82h.81c-.37 0-.76-.08-1.15-.15z"/><path class="cls-180" d="M13 23.82l-.34-.18a33.74 33.74 0 01-6.27-2 37.41 37.41 0 00-4.26-.17c-2 .07-2.9.5-.23 1.8 0 0 2.34.6 4.91 1a51.12 51.12 0 016.19-.45zM12.19 28.64a.37.37 0 000-.11 39.77 39.77 0 01-5.3.75c-4.33 1.58-9.27 3.72-4.7 3.9l.69-.13A20.15 20.15 0 017 31.65c1.63-1.06 3.56-2.14 5.19-3.01z"/><path class="cls-182" d="M7 31.65a20.15 20.15 0 00-4.13 1.4c-1 .5-1.72 1.09-1.84 1.78a6.09 6.09 0 002.62.1c-.01-.79 1.44-2.01 3.35-3.28z"/><path class="cls-180" d="M8.09 37.5c-3.21.34-1.29-1.71 1.69-4a.5.5 0 01-.13 0s-8.71 7-3.34 5.46c0 0 1.18-.49 2.45-1.19.46-.45.94-.91 1.41-1.33-1.17.65-2.08 1.06-2.08 1.06z"/><path class="cls-182" d="M16.64 32a36.32 36.32 0 01-6.47 4.4c-.47.42-.95.88-1.41 1.33-2.08 2.07-3.55 4.12.66 2.65a42 42 0 004-3.49c1.09-1.71 2.26-3.47 3.19-4.84a.43.43 0 01.03-.05z"/><path class="cls-180" d="M22.33 32.17a6.36 6.36 0 01-.89-.16 24.89 24.89 0 01-2.83 7.59c-1 3.42-1.43 6.45.38 5.82 0 0 .32-.71.77-1.8 0-3.3 1.72-8.89 2.57-11.45zM25.8 31.65c2 6.08 2.18 9.37 2 11.12.94 1.57 3.8 6 3.71 1.69a39 39 0 00-1-6.08 57.18 57.18 0 01-4.55-6.76z"/><path class="cls-182" d="M32.46 34.47A32.62 32.62 0 0136 41.23l-.06.06c1.81 1.41 5.21 3.62 2.59-1.93a42.65 42.65 0 01-5.81-4.82z"/><path class="cls-180" d="M41.26 36.45a18.94 18.94 0 00-4.63-3.89A38 38 0 0140.54 38c1.09.42 2.46.67.72-1.55z"/><path class="cls-181" d="M31.47 23.55a3.53 3.53 0 00-1 .56l-.07.06a9.28 9.28 0 010 1.29c0 .24-.07.47-.11.7l9.17 1.7c.63.21 1.2.43 1.72.65 1 0 2.1 0 3.27-.13 0 0 1.5-.33-2-2.47 0 0-.64-.32-1.62-.74a21.49 21.49 0 00-7.31-1.89z"/><path class="cls-181" d="M33.52 20.3l-3.84 1.2a7.66 7.66 0 01.62 2.19h.27l.9-.11 2-.27c2.93-.43 6.6-1.11 7.59-1.93a.68.68 0 00.21-.24h-.17a33.72 33.72 0 00-7.58-.84z"/><path class="cls-183" d="M29.91 17.93l-1.53 1.33a1.49 1.49 0 00-.12.14 7.41 7.41 0 011.42 2.1l3.82-1.19c.2-.12 1.9-1.14 3.77-2.4 3.08-2.08 6.57-4.8 4.32-5.13l-1.15.37a48.6 48.6 0 00-10 4.4z"/><path class="cls-181" d="M28.24 19.38l.14-.12 1.53-1.33 1.36-1.19 5.37-4.65.47-.65C38.18 10 40.55 6.53 39 7a12.76 12.76 0 00-8 5.63l-3.59 6a7.59 7.59 0 01.83.75z"/><path class="cls-182" d="M26.19 17.91a8 8 0 011.26.77l3.59-6s4.13-11.5.67-8a8.28 8.28 0 00-2.57 2.92c.16 1.51-1.91 7.4-2.95 10.31z"/><path class="cls-181" d="M24 13.64a26.84 26.84 0 01-.45 3.54l-.2.05h.52a6.83 6.83 0 012 .52c.11-.38.25-.9.42-1.52.7-3 1.61-6.67 2-8.18.44-2.08.66-3.67.34-3.76 0 0-.25-2.32-3 4.55a92.14 92.14 0 00-1.46 3.86z"/><path class="cls-183" d="M20 9.78a27.52 27.52 0 00.58 5.45 22.43 22.43 0 00.58 2.28 7 7 0 012.2-.28l.2-.05a26.84 26.84 0 00.44-3.54A22.82 22.82 0 0022.82 4a3 3 0 00-1-1.24c-.38-.19-.82-.08-1.24.85a21.14 21.14 0 00-.43 2.74C20.07 7.13 20 8 20 9v.78z"/><path class="cls-181" d="M19.75 18.09a7.7 7.7 0 011.39-.58c-.22-.61-.88-2.41-1.65-4.46-1.29-3.4-2.89-7.45-3.32-7.77a.91.91 0 00-.41.29c-.49.54-1.07 2.06.55 6.17 0 0 .26.78.68 1.79 1.08 1.79 2 3.42 2.46 4.31a2.21 2.21 0 00.3.25z"/><path class="cls-181" d="M18.13 19.22h.05a7.58 7.58 0 011.44-1.09l-.17-.32C19 17 18.07 15.32 17 13.53c-2.33-3.87-5.48-8.47-6.9-7.76 0 0-1 1.51 1.23 3.84v.05c2.23 1.98 5.77 7.82 6.8 9.56z"/><path class="cls-183" d="M14.71 18.13c1.59 1 2.7 1.79 2.7 1.79a1.2 1.2 0 010 .19 7.41 7.41 0 01.74-.84.08.08 0 000-.05c-1-1.74-4.57-7.58-6.78-9.56-.53-.45-.97-.66-1.29-.66a13.77 13.77 0 002.39 6.5 14.59 14.59 0 001.79 2.21z"/><path class="cls-181" d="M14.4 21.17l2.15.37a7.15 7.15 0 01.86-1.43 1.2 1.2 0 000-.19s-1.11-.76-2.7-1.79l-1.25-.81c-2-1.28-4.4-2.75-6.31-3.74-2.6-1.35-4.27-1.79-2.64.48 0 0 1.28 1.17 3 2.58a52.78 52.78 0 004.27 3.12 17.27 17.27 0 002.62 1.41z"/><path class="cls-181" d="M16.55 21.54l-2.15-.37C9.59 20.36 1.05 19.1 4.92 21c0 0 .58.27 1.48.64a33.74 33.74 0 006.27 2c.39.07.78.12 1.15.15h1.53a3.51 3.51 0 00.58-.13 7.91 7.91 0 01.62-2.12z"/><path class="cls-182" d="M15.87 25.44a8.14 8.14 0 010-1.48 1.29 1.29 0 00-.17-.15h-2.69a51.12 51.12 0 00-6.19.52c-2.38.38-4.43 1-4.9 2 0 0-3.08 1.88.83 1.69 3-1 9.75-1.91 12.53-2.28a3.54 3.54 0 00.59-.3z"/><path class="cls-181" d="M12.55 28.45c1.81-.95 3.17-1.61 3.17-1.61l.28.09.12-.12a8.24 8.24 0 01-.22-1.1l-.62.08c-2.78.37-9.58 1.32-12.53 2.28-1.56.51-2.06 1-.34 1.42 0 0 2 0 4.49-.21a39.77 39.77 0 005.3-.75z"/><path class="cls-181" d="M16.84 28.53a7.12 7.12 0 01-.67-1.53l-.17-.07-.28-.09s-1.36.66-3.17 1.61l-.36.19c-1.63.87-3.56 1.95-5.18 3-1.92 1.27-3.37 2.49-3.35 3.28 0 .36.31.63 1 .77 0 0 2.94-1.26 6-2.85 2.12-1.56 4.54-3.14 6-4.09.07-.07.13-.14.18-.22z"/><path class="cls-183" d="M8.09 37.5s.86-.41 2.08-1.09A36.32 36.32 0 0016.64 32a.27.27 0 01.08-.07c.54-.8 1-1.45 1.28-1.87a7.15 7.15 0 01-1.11-1.45l-.22.14c-1.49.95-3.91 2.53-6 4.09l-.86.65c-3.01 2.3-4.93 4.35-1.72 4.01z"/><path class="cls-181" d="M19.25 31.09a7.63 7.63 0 01-1.25-1c-.3.42-.74 1.07-1.28 1.87l-.09.12c-.93 1.37-2.1 3.13-3.19 4.84-2.75 4.34-4.92 8.39-1.1 5.08a52.44 52.44 0 004.31-5.19c1-2.26 2.09-4.41 2.59-5.41a1.43 1.43 0 00.01-.31z"/><path class="cls-181" d="M19.36 31.15a2.42 2.42 0 00-.12.23c-.5 1-1.57 3.15-2.59 5.41-2 4.41-3.82 9.18-.84 6.36a13.68 13.68 0 002.8-3.55 24.89 24.89 0 002.83-7.6 6.82 6.82 0 01-2.08-.85z"/><path class="cls-182" d="M23.64 32.61c-.05-.15-.09-.29-.14-.43a6.53 6.53 0 01-1.17 0c-.85 2.56-2.57 8.15-2.57 11.45 0 1.73.46 2.83 1.76 2.54a33.69 33.69 0 002.37-8.42 30.23 30.23 0 01-.25-5.14z"/><path class="cls-181" d="M25.8 31.65a7.14 7.14 0 01-2.15.53v.43a30.23 30.23 0 00.25 5.13c.38 2.65 1.25 5.46 3.16 6.9 0 0 .52-.35.71-1.87.23-1.77-.01-5.04-1.97-11.12z"/><path class="cls-183" d="M32.46 34.47l-.52-.72c-1.73-1.67-3.17-3.16-3.73-3.75a7.35 7.35 0 01-2.33 1.62 57.18 57.18 0 004.55 6.76c2 2.53 4.26 4.4 5.55 2.91l.06-.06a32.62 32.62 0 00-3.58-6.76z"/><path class="cls-181" d="M29.67 27.86A7.59 7.59 0 0128.21 30c.56.59 2 2.08 3.73 3.75l.82.79a42.65 42.65 0 005.81 4.82c1.6 1 2.66 1.13 2.44-.52 0 0-.16-.31-.47-.84a38 38 0 00-3.91-5.44 22.32 22.32 0 00-3.34-3.17c-1.49-.62-2.77-1.18-3.6-1.55z"/><path class="cls-182" d="M30.22 26.16a7.85 7.85 0 01-.54 1.68c.83.37 2.11.93 3.6 1.55 5.07 2.08 12.5 4.76 12.52 2.53 0 0-1.06-1.84-4.7-3.41-.52-.22-1.09-.44-1.72-.65z"/><path class="cls-180" d="M26 17.8l.23.11c1-2.87 3.11-8.8 2.95-10.35 0-.41-.24-.52-.64-.19l-.19.71c-.38 1.51-1.29 5.15-2 8.18-.16.54-.28 1.06-.35 1.54z"/><path d="M30.31 23.74a7.66 7.66 0 00-.62-2.19 7.41 7.41 0 00-1.42-2.1 7.59 7.59 0 00-.79-.7 8 8 0 00-1.26-.77L26 17.8h-.06a6.83 6.83 0 00-2-.52h-.52a7 7 0 00-2.2.28 7.7 7.7 0 00-1.39.58l-.13.07a7.58 7.58 0 00-1.44 1.09 7.41 7.41 0 00-.74.84 7.15 7.15 0 00-.86 1.43 7.91 7.91 0 00-.62 2.11v.28a8.14 8.14 0 000 1.48v.27a8.24 8.24 0 00.22 1.1 1.54 1.54 0 00.05.17 7.12 7.12 0 00.67 1.55.41.41 0 00.05.09 7.15 7.15 0 00.97 1.45 7.63 7.63 0 001.25 1l.11.06a6.82 6.82 0 002.08.86 6.36 6.36 0 00.89.16 6.53 6.53 0 001.17 0h.15a7.14 7.14 0 002.15-.53h.08A7.35 7.35 0 0028.21 30a7.59 7.59 0 001.46-2.14 7.85 7.85 0 00.54-1.68c0-.23.08-.46.11-.7a9.28 9.28 0 000-1.29.49.49 0 010-.12z" fill="#231f20"/><path fill="#c3922e" d="M30.09 24.49l-.91 1.19.47 1.45-.7 1.1-1.16.64-1.02.6-.53 1.49-1.29.28-1.07-.24-.74-.32-1.3.39-1.07-.73-1.51.19-.73-1.15-.85-.9-.61-1.08-.74-1.09.12-1.06.15-.76-.22-1.33.58-1.16.7-1.03.43-1.24 1.11-.63 1.22-.28 1.05-.57.94-.16.73.22 1.24-.15 1.25.18 1.38.13.63 1.25.91.82 1.02.87.33 1.27-.4 1.09.59.72z"/><path class="cls-186" d="M27.81 24.49a4.67 4.67 0 11-4.67-4.67 4.67 4.67 0 014.67 4.67z"/><path d="M26.24 24.49a3.11 3.11 0 11-3.1-3.1 3.1 3.1 0 013.1 3.1z" fill="#e2cb9f"/><path class="cls-186" d="M28.19 23.11l-.45-.77.45-.77h.88l.44.77-.44.77h-.88zM27 27.66l-.44-.77.44-.76h.88l.45.76-.45.77H27zM23.44 27.26L23 26.5l.44-.77h.88l.45.77-.45.76h-.88zM22.65 22.32l-.45-.77.45-.77h.88l.44.77-.44.77h-.88zM20.73 19.97l-.45-.77.45-.77h.88l.44.77-.44.77h-.88zM17.76 21.95l-.44-.77.44-.77h.88l.45.77-.45.77h-.88zM17.96 26.1l-.45-.77.45-.76h.88l.44.76-.44.77h-.88z"/><path class="cls-186" d="M17.33 26.52l-.44-.77.44-.77h.88l.45.77-.45.77h-.88zM18.78 28.25l-.44-.77.44-.76h.89l.44.76-.44.77h-.89zM21.95 27.06l-.44-.76.44-.77h.89l.44.77-.44.76h-.89zM23.73 24.1l-.44-.77.44-.76h.88l.45.76-.45.77h-.88zM25.71 26.87l-.44-.77.44-.77h.88l.45.77-.45.77h-.88zM25.51 22.51l-.44-.76.44-.77h.89l.44.77-.44.76h-.89z"/></symbol><symbol id="Deleted_Symbol_2" data-name="Deleted Symbol 2" viewBox="0 0 155.98 107.63"><path class="cls-1" d="M0 0h155.98v107.57H0z"/><path d="M145.39 58.5C131.91 48 130.27 24 129.61 13.8a55 55 0 01.44-12.62c-7.75 17.05-2.63 41.37 1.86 48.12 4.6 6.9 15.09 11.5 15.09 11.5s5.26 1 2.63-.33c-1.85-.92-3.21-.88-4.31-2.14z" fill="#81a79d"/><path d="M129.61 13.8c.66 10.19 2.3 34.18 15.78 44.7v-.17a6.92 6.92 0 01-1.28-2.46c-1.31-3.94-8.21-25-11.17-33.52S130.6 0 130.6 0c-.2.39-.37.78-.55 1.18a55 55 0 00-.44 12.62z" fill="#598f7d"/><path d="M131.89 61.77c-11.93 1.14-105 3.65-105 3.65l-.3 4.06c4.84-.17 99.48-3.43 114.21-4.32-24 12.82-13.51 34.42-13.51 34.42C126.21 87.74 139 70.35 143.11 65c3.3-.15 5.61-.14 6.32.13C150.65 63.1 156 60 156 60s-12.18.64-24.11 1.77z" fill="#5d8c7a"/><path class="cls-168" d="M23.34 71.75s9.82 3.85 12.4 4.31S45.8 75.6 47 75.15s-.47-2.27-.47-2.27 2.8-1.36-.24-2.49-10.76-3-16.37-2.49c-1.87-.23-5.85.45-6.32.9a3.1 3.1 0 00-.26 2.95z"/><path class="cls-168" d="M21.87 74.74s8.52 7.39 11 8.81 10.35 3.45 11.71 3.5.38-2.3.38-2.3 3.37-.18.71-2.41-9.82-6.9-15.7-8.65c-1.81-.93-6.11-1.84-6.75-1.6a2.9 2.9 0 00-1.35 2.65zM24.06 68.37s11.33-1.51 14-2.39 9.46-5.42 10.36-6.41-1.55-1.76-1.55-1.76 2-2.6-1.44-2.09-11.79 2.78-17 6c-1.91.74-5.41 3.32-5.64 4a2.89 2.89 0 001.27 2.65z"/><path class="cls-168" d="M23.33 65.16S33.47 60 35.7 58.31s7-8.2 7.51-9.42-2.08-1.15-2.08-1.15 1-3.11-2.08-1.49-10.13 6.48-13.88 11.19c-1.54 1.32-3.93 4.9-3.92 5.57a2.94 2.94 0 002.08 2.15zM23.11 75.6s-3.05 3.63-.71 6.8a59.73 59.73 0 007.49 8.6c2.11 1.83 10.29 7.27 12.63 7.5s2.11 0-.7-4.08S27.55 77.19 23.11 75.6z"/><path class="cls-168" d="M27.08 87.62a27.36 27.36 0 003.28 5.21c1.64 1.82 7.72 10.88 7.72 12.25s-1.17.68-1.87 0l-.71-.69s1.41 3-.23 3.18a4.6 4.6 0 01-4.21-1.36s-3.51.22-4.45-.68-1.4-2.49-2.34-2.72-4 1.58-5.14-.91-6.08-15-6.79-17.68-2.81-23.67-2.81-28.66 1.18-13.06 3.52-17.36 5.61-10.43 7-11.79.71.45.71 1.36 1.63-.91 1.4 1.13-3.27 11.1-4.9 14.28a22.07 22.07 0 00-2.58 10.89c.24 3.62 7.49 29.02 12.4 33.55z"/><path class="cls-168" d="M22.4 61.09s-3 .46-2.57-1.58-.7-.91-1.64-2.5-2.1-2.26-1.87-2.94-2.8-.8-2.8-3.07 11-20.74 15.67-21.64-2.58 6.34-3 8.61 4-4.76 6.55-5.22S34.57 35 34.57 35s4.91-.45-.24 6.81c0 0 3.05 0 3.51.9s-4.68 8.16-7.72 11.11-8.65 5.69-7.72 7.27z"/><path d="M12.83 84.37s2.2 4.73 2.69 3.68 1.21-.26 2.19 0 1.95-.53 2.92 0 .73-.53 1.22-1.58.49-3.68 1.22-3.94-.73-2.63.73-3.42 2.16-1 1.45-2.37-.47-1.58.5-2.63.74-1.57.49-2.63-1.15-2.31 0-3.13.22-1.59-.28-2.65-1.95-1.84-1.71-2.89.49-2.89-.24-3.68A3.67 3.67 0 0122.83 56c.24-1.31-.49-1.84-1.22-2.89s-1.95-2.89-1.95-2.89a2.07 2.07 0 01-1.46.52c-1 0-1.56-.26-1.76-1.05s-1.66-.78-1.66-.78h-1.95c-.73 0-2.19 1.83-2.19 3.68s-1.22 26.78 2.19 31.78z" fill="#d9afc3"/><path d="M13.12 83.51c.06.11.63 1.33 1.2 2.27.48.66 1 1.17 1.19.83.38-.58.83-.35 1.42-.1l.26.11.29.07a2.6 2.6 0 001 0 2.74 2.74 0 01.6-.25 1.47 1.47 0 01.9-.08c.77.23.63-.68 1.07-1.6s.38-3.27 1-3.64-.09-1.71.49-2.55a1 1 0 01.34-.47c1.05-.82 1.65-1.17 1.18-2.29s-.2-1.4.61-2.27a3.13 3.13 0 00.37-.62 2.84 2.84 0 00-.12-1.71c-.21-1-.89-2 0-2.77s.23-1.41-.09-2.29a1.12 1.12 0 010-.13 5 5 0 00-.53-.67c-.47-.52-1-1-.91-1.62.11-.88.22-2.37-.38-3.09a3.42 3.42 0 01-1-2.76 2.33 2.33 0 000-1 5.74 5.74 0 00-.82-1.53 10.44 10.44 0 01-1.62-2.89l-.36-.46-.21-.4s-.07 0-.16.09a2.67 2.67 0 01-1.3.29c-.85 0-1.4-.26-1.64-.9s-1.39-.7-1.45-.75a1.87 1.87 0 00-.59-.1h-1.13a1.08 1.08 0 00-.33.21c-.26.14-.57.79-.82 1.21A6.47 6.47 0 0011 54.1c-.07 5.74-.59 24.52 1.88 29 0 .06.09.15.12.2s.09.17.12.21zM23 81a.56.56 0 00-.2.12A1 1 0 0123 81z" fill="#bd8fa2"/><path d="M13.41 82.66c.11.21.57 1.17 1 1.92.4.45.83.81 1.06.59s.76-.18 1.27 0l.23.09a1.45 1.45 0 01.25 0 3.92 3.92 0 00.89 0c.15-.14.31-.34.44-.36a1.5 1.5 0 01.66-.32c.55 0 .53-.83.93-1.62.19-1.07.26-2.85.83-3.34s.18-1.46.74-2.13a1.05 1.05 0 01.19-.49c.65-.84 1.15-1.28.93-2.22s.06-1.22.71-1.9a4.35 4.35 0 00.21-.52 3.89 3.89 0 00-.2-1.51c-.19-.84-.64-1.76 0-2.41s.22-1.23.09-1.94a.36.36 0 010-.11 6.13 6.13 0 00-.45-.54c-.36-.4-.78-.8-.8-1.29a5 5 0 00-.52-2.5 3.19 3.19 0 01-.72-2.36 2.86 2.86 0 000-.87 4 4 0 00-.5-1.35 7 7 0 01-1.61-3.39c-.06-.09-.38-.49-.4-.53l-.4-.56a.93.93 0 00-.19.07 3.9 3.9 0 01-1.26.16 1.72 1.72 0 01-1.52-.76c-.27-.49-1.14-.6-1.25-.72a1.66 1.66 0 00-.5-.19h-.9a1.82 1.82 0 00-.27.29c-.17.1-.4 1-.56 1.25a10.62 10.62 0 00-.41 2.53c-.16 9.68 0 23.39 1.8 26.62l.12.19zm8.28-2.42a1.22 1.22 0 01.41-.24 1.41 1.41 0 00-.41.24z" fill="#a57487"/><path d="M13.7 81.81c.16.31.51 1 .85 1.58.33.22.68.44.94.34a1.55 1.55 0 011.12.17l.19.08a1.55 1.55 0 01.2.02 6.78 6.78 0 00.83-.07c.1-.19.22-.45.28-.46a3.52 3.52 0 01.41-.56c.33-.31.44-1 .79-1.65a6.16 6.16 0 01.64-3c.36-.45.43-1.21 1-1.71A1.68 1.68 0 0121 76a8.59 8.59 0 00.67-2.14 2.26 2.26 0 01.81-1.55 2.28 2.28 0 00.05-.4 8.56 8.56 0 00-.26-1.32 2.75 2.75 0 010-2 3 3 0 00.22-1.59.28.28 0 010-.09c-.09-.11-.31-.35-.37-.41a2.74 2.74 0 01-.69-1 9.51 9.51 0 00-.65-1.9 3.12 3.12 0 01-.47-2c0-.25 0-.49.05-.72a2.91 2.91 0 00-.18-1.17 5.85 5.85 0 01-1.59-3.87c-.05-.08-.48-.62-.5-.64l-.56-.78h-.24a4.83 4.83 0 01-1.21 0 2.15 2.15 0 01-1.41-.61c-.3-.34-.87-.5-1-.68a2.07 2.07 0 00-.41-.28h-.71a1.39 1.39 0 00-.23.37c-.08 0-.21 1.14-.29 1.28a21.13 21.13 0 00-.25 2.61c-.28 13.62.55 22.26 1.71 24.21l.14.2zM21.16 79a1.78 1.78 0 00-.61.37 2.16 2.16 0 01.61-.37z" fill="#8f5c6f"/><path d="M13.75 80.56l.14.19.11.25c.2.41.44.84.67 1.24a4.82 4.82 0 011.78.4l.16.06h.18c.19 0 .5-.06.77-.09l.12-.58a7.47 7.47 0 01.81-2.46 4 4 0 011.66-4 3.83 3.83 0 011.23-3.78l-.11-.3a4.36 4.36 0 01.08-4.1c-.06 0-.28-.28-.28-.28a4.27 4.27 0 01-1.49-4.09 4.28 4.28 0 00.14-1 5.48 5.48 0 01-1.57-4.36l-.6-.75-.72-1a2.7 2.7 0 01-.28 0 4.2 4.2 0 01-3.62-1.59h-.52a1.19 1.19 0 00-.17.46v1.32c-.7 19.9.98 23.74 1.51 24.46zM20.22 78a2.39 2.39 0 00-.82.49 3 3 0 01.82-.49z" fill="#7a4659"/><path d="M20.4 79.23l-.68 2-1.81-.68-.68 1.81L15 81.5l-.94 2.5-2.5-1.81-2 1.13-.68-2L7 81.5 6.58 79h-2.5l2-1.59L3 76.28.45 74.47l3.18-.23-2.27-1.36 1.81-.68L0 69.93l3.4.23-2.49-2.27 2.72-.22-2.5-2.5L3 64.49s-2.5-2.26-1.82-2.26 2.22-1.82 2.22-1.82l.23-2 1.58.46.23-1.87 1.36.45.68-2.45 1.13 1.14.69-2.73 1.58 1.14 1.36-1.36 1.14 1.58 1.13-1.58 1.13 1.36 1.36-.71 1.14 4.53 1.86-.22-.45 1.36 1.36 2-1.14.68 1.14 1.58-.91.68 1.81 1.59-1.41 1.17 1.6 1.36-1.6.43 1.14 1.58-1.14 1.17 1.14 1.13-.91.91 1.36 2H20.4l1.36 1.81-1.58-.23-.18 1.86" fill="#cf9e59"/><path d="M20.28 77.55l-.58 1.72-1.53-.57-.57 1.53-1.91-.77-.77 2.11-2.1-1.57-1.73 1-.57-1.72-1.52.18-.38-2.1H6.5L8.23 76l-2.68-1-2.11-1.47 2.68-.19-1.91-1.15 1.53-.57-2.68-1.91 2.87.19L3.82 68l2.3-.18L4 65.69l1.53-.57S3.44 63.21 4 63.21s1.91-1.54 1.91-1.54L6.12 60l1.34.38.19-1.53 1.15.39.57-2.11 1 1 .57-2.3 1.34 1 1.15-1.15 1 1.34 1-1.34 1 1.15 1.15-.57.78 3.74 1.53-.19-.38 1.15 1.15 1.72-1 .58 1 1.33-.77.58 1.53 1.34-1.14 1 1.34 1.15-1.34.38.95 1.34-.95 1 .95 1-.76.77 1.15 1.72h-1.34l1.14 1.53-1.33-.4-.2 1.53" fill="#ab784d"/><path d="M20.15 75.87l-.47 1.4-1.24-.46-.44 1.24-1.56-.62-.62 1.72-1.75-1.25-1.4.78-.47-1.41-1.2.16-.31-1.72H8.93l1.4-1.08-2.18-.78-1.72-1.25 2.18-.16-1.55-.93L8.3 71l-2.18-1.52 2.34.16-1.72-1.56 1.87-.16-1.71-1.71 1.25-.47s-1.72-1.56-1.25-1.56 1.56-1.24 1.56-1.24l.15-1.41 1.1.31.15-1.24.94.31.46-1.72.74.81.47-1.87 1.09.78.94-.93.82 1.02.78-1 .78.93.93-.47.78 3.12 1.25-.15-.31.93.93 1.4-.78.47.78 1.09-.62.47 1.24 1.09-.93.78 1.09.94-1.09.31.78 1.09-.78.78.78.78-.62.62.93 1.4h-1.09l.93 1.25-1.08-.2-.15 1.24" fill="#8b5840"/><path d="M20 74.19l-.36 1.09-1-.36-.36 1-1.21-.48-.48 1.32-1.33-1-1.08.6-.36-1.08-1 .12-.24-1.33h-1.23l1.08-.84-1.68-.6-1.33-1 1.69-.11-1.21-.7 1-.36-1.72-1.21 1.81.13-1.33-1.21 1.45-.12-1.33-1.32 1-.37s-1.33-1.2-1-1.2 1.21-1 1.21-1l.12-1.09.84.24.12-1 .72.24.37-1.33.6.61.36-1.45.84.6.73-.72.6.84.6-.84.6.72.72-.36.61 2.41 1-.12-.24.72.72 1.09-.6.36.6.84-.48.36 1 .85-.72.6.84.72-.84.24.6.85-.6.6.6.6-.48.48.72 1.09H20l.72 1-.84-.12-.12 1" fill="#6f3b33"/><path d="M19.89 72.52l-.25.76L19 73l-.26.68-.85-.34-.34.93-.93-.68-.77.43-.25-.77-.68.09-.17-.94h-.94l.77-.59-1.19-.43-.94-.68 1.19-.08-.85-.52.68-.25-1.23-.85 1.28.08-.94-.85 1-.08-.93-.93.68-.26s-.94-.85-.68-.85.85-.68.85-.68l.08-.77.6.17.08-.68.51.17.26-.93.42.42.26-1 .59.43.51-.51.43.59.42-.59.43.51.51-.26.42 1.7.68-.08-.17.51.51.76-.42.26.42.59-.34.26.68.59-.51.43.6.51-.6.17.43.6-.43.42.43.42-.34.35.51.76h-.6l.51.68-.59-.08-.09.68" fill="#561f27"/><path class="cls-179" d="M45.85 83.52s-7.37-5.73-11.62-6.71-4.42.16-2.62.82 7.53 3.93 5.56 3.43-8.51-1.3-6.54-.32S41.59 86 43.23 86s-5.23-3.13-6.38-3.63 1.3-1.14 3.93-.16 0-1.31-2.13-2.45M43.23 97.92S33.74 85 31 83.52s-2.46-1-.17 1.14 9.33 10.81 9.33 11.46-8.67-6.22-10.47-7.36 2.12 2.94 4.41 4.41M31.12 75c2.13.33 14.4 0 14.73-.66s-2.29-1.14-2.46-1.63 4.59-.66 2.79-1.47-15.39-3-16.86-2.46 12.27 2.29 13.42 2.78-14.4-.32-12.6.49 12.11 1.31 13.42 1.8M30.3 66.83s14.89-4.42 17-7.21-.49-.49-1.47-1 .65-2.12.65-2.12-7.85.65-12.27 3.27-.82 1.8 2.45.16 9.82-3.43 7-1.8-16.86 8-11 5.73 15.38-5.07 11.94-3.44M28.91 30.27S17 42.79 16.6 47.71s.2.21 1.23-1.23 10.06-13.75 11.29-14.77M32.61 34.17A15.88 15.88 0 0026 39.51a98.13 98.13 0 00-5.75 11.08s.62.82 1.44-.82S31.79 36.22 33.22 35M35.48 37.25s-1.23-2.06-3.48 1.23S21.32 51 21.93 51.21s3.08-1 4.11-3.08 6.36-9 8-9.24M40 46.89s-9.65 5.55-11.09 8.42.21 1.23 2.67-.62 8.83-6.15 7.39-3.9-.82 2.67 1.44.62-.83-3.7-.41-4.52zM24.81 54.28S33 43.61 34.66 42.79s2.87-.41 2.26.82S26.86 54.9 25.83 56.54s1.64-3.7 2.88-5.13-3.9 2.87-3.9 2.87zM25.63 88.35s11.29 14.37 11.7 16.65c0 0-10.88-10.49-11.7-16.65zM35.27 106.83s-2.46.41-3.28-.62S22.14 91.23 21.73 89c0 0 7.39 11.7 9.23 13.55s3.04.79 4.31 4.28zM28.91 105.8s-1.64.61-3.08-2.26-6.16-13.75-6.16-13.75 5.75 12.52 7.39 13.34 2.26 1.44 1.85 2.67zM14.75 89s4.72 13.34 5.75 13.54 2.66.42 1.64-.61S15.16 89.79 14.75 89zM10 50.79s1.23-7.38 2.67-9.64S19.82 26.2 20.29 27 17 33.55 18 33.76s-1.43 5.54-2.67 7-3.89 7.8-3.89 7.8"/></symbol><symbol id="Deleted_Symbol_7" data-name="Deleted Symbol 7" viewBox="0 0 107.63 155.98"><use width="155.98" height="107.63" transform="rotate(90 53.815 53.815)" xlink:href="#Deleted_Symbol_2"/></symbol><symbol id="Purple_Coneflower" data-name="Purple Coneflower" viewBox="0 0 107.63 155.98"><use width="107.63" height="155.98" xlink:href="#Deleted_Symbol_7"/></symbol><symbol id="Deleted_Symbol" data-name="Deleted Symbol" viewBox="0 0 137.97 67.34"><path class="cls-1" d="M0 0h137.97v67.34H0z"/><path class="cls-2" d="M20.6 20.05a45.42 45.42 0 00-3.74-3.73 21.3 21.3 0 00-3.68-1.38c4.59 1.6 14.76 18.07 16.9 20.2A7.61 7.61 0 0035.71 37s.19-.59.36-1.31c-5.56-2.4-13.7-13.57-15.47-15.64zM13.18 14.94a2.27 2.27 0 00-.53-.13zM17.34 16.55L25 22.84a23 23 0 00-7.66-6.29z"/><path class="cls-1" d="M13.91 13.75s1.36 1.12 2.95 2.57l.48.23zM35.88 33.27c.62 0 .43 1.36.19 2.44 1.63.72 3 .69 4-.58L25 22.84c.38.49.76 1 1.11 1.54 3.06 4.62 8.75 8.89 9.77 8.89z"/><path class="cls-3" d="M16.86 16.32a45.42 45.42 0 013.74 3.73c1.77 2.07 9.91 13.24 15.47 15.66.24-1.08.43-2.44-.19-2.44-1 0-6.71-4.29-9.74-8.89-.35-.54-.73-1.05-1.11-1.54l-7.69-6.29z"/><path class="cls-1" d="M35.31 41.54c-2.61.69-5.92 1.53-9.25 2.25a33.59 33.59 0 009.25-2.25z"/><path class="cls-4" d="M9 42a11.31 11.31 0 00-4-.94c2 1.19 3.89 3.24 7.3 4.17 2.46.67 8.14-.22 13.76-1.44C17.74 44.66 10.35 42.77 9 42z"/><path class="cls-2" d="M35.31 41.54c3.08-.82 5.19-1.44 5.19-1.44l-.23-.19c-1.4.49-2.78.92-4.14 1.27-.27.12-.54.25-.82.36z"/><path class="cls-3" d="M11.79 40.78a13.28 13.28 0 00-3.85-1.09 20.29 20.29 0 012.25 1.09c1.41.84 12.47 3.86 25.94.4 1.36-.35 2.74-.78 4.14-1.27l-1-.83c-3.04.85-22.01 4.27-27.48 1.7z"/><path class="cls-2" d="M10.19 40.78a20.29 20.29 0 00-2.25-1.09 19.31 19.31 0 00-7.94.75 6.19 6.19 0 015 .63A11.31 11.31 0 019 42c1.38.76 8.77 2.65 17.09 1.78 3.33-.72 6.64-1.56 9.25-2.25.28-.11.55-.24.82-.36-13.5 3.47-24.56.45-25.97-.39z"/><path d="M14.19 20.23l-1.27-.84A19 19 0 0116 25.92c1.68 5.48 5.38 12.77 9.25 13.14s11.35.69 11.35.69C31.09 39 24.5 37.9 22.92 36.3c-2.34-2.38-4.55-10.61-8.73-16.07z" fill="#848ab5"/><path class="cls-6" d="M14.19 20.23L17 22.07c-2-2.65-3.92-4.9-5.37-5.69A13.44 13.44 0 016.81 12a47.45 47.45 0 002.94 4.28 14 14 0 014.44 3.95zM6.81 12c-.11-.17-.17-.28-.17-.28a3 3 0 00.17.28z"/><path class="cls-6" d="M22.92 36.3c1.58 1.6 8.17 2.73 13.69 3.42l-.67-2s-9.57-1.46-12.26-5.66c-1.53-2.39-4.14-6.54-6.73-10l-2.76-1.84c4.18 5.47 6.39 13.7 8.73 16.08zM9.75 16.27a8.61 8.61 0 001.32 1.39 9 9 0 011.85 1.73l1.27.84a14 14 0 00-4.44-3.96z"/><path class="cls-3" d="M27.42 38.9c-7.81-3.11-11.48-1.22-11.48-1.22C20.17 40.36 26.6 41.05 32.6 41a49.49 49.49 0 005.51-.69l.51-1.71a17.5 17.5 0 01-4.62.5 11.33 11.33 0 01-6.58-.2z"/><path class="cls-2" d="M12 36.74a51.44 51.44 0 007.89 3.69A53.2 53.2 0 0032.6 41c-6 .09-12.43-.6-16.66-3.28 0 0 3.67-1.89 11.48 1.22a11.33 11.33 0 006.61.2A28.67 28.67 0 0123.31 37 58.52 58.52 0 0012 36.74z"/><path class="cls-4" d="M7 35.14a28.8 28.8 0 0012.86 5.29A51.44 51.44 0 0112 36.74a58.52 58.52 0 0111.31.26 1.73 1.73 0 01-.24-.1C19.31 35.14 7 35.14 7 35.14z"/><path class="cls-1" d="M32.73 40.45a27.34 27.34 0 014.53-2 7.07 7.07 0 00-4.53 2z"/><path class="cls-3" d="M32.69 44.34a33 33 0 015-3.31 9.14 9.14 0 00-5 3.31zM38.45 40.61l-.77.42a5.16 5.16 0 01.87-.1z"/><path class="cls-2" d="M37.26 38.45h.2z"/><path class="cls-7" d="M29.74 43.26c1-1 2-2 3-2.81a24.62 24.62 0 00-5.22 3.75 47.32 47.32 0 01-8.93 6.52 49.67 49.67 0 01-12.26 5.1 55 55 0 005.82-.4 17.13 17.13 0 002.64-1.22c1.81-1.05 4.82-3.11 7.74-5.25s5.75-4.34 7.21-5.69z"/><path class="cls-4" d="M7.93 55.72c.45 0 2.79-.14 5.87-.57.43-.14.85-.29 1.27-.46A14.86 14.86 0 0016.5 54a63.24 63.24 0 006.61-4.66c.43-.33.85-.68 1.26-1 1.45-1.19 2.78-2.31 3.85-3.14s2.41-1.76 3.35-2.45c.63-.47 1.23-.95 1.78-1.39.34-.33.37-1.06.71-1.35L33.9 40a32.68 32.68 0 00-4.17 2.57c-.34.29-.68.59-1 .9-.56.55-1.18 1.12-1.85 1.69a58.19 58.19 0 01-7 5l-.73.44a55.42 55.42 0 01-8.42 4.19c-.91.34-1.85.66-2.8.93z"/><path d="M9.54 55.62c.9-.11 3.16-.27 5.93-.73.43-.13.87-.27 1.3-.42a15.61 15.61 0 001.46-.77 50.07 50.07 0 006.65-4.92c.47-.4.91-.8 1.33-1.18 1.47-1.32 2.73-2.49 3.62-3.18a39.57 39.57 0 013.57-2.3c.7-.42 1.36-.85 1.93-1.22.23-.22-.16-1.26.07-1.46l-.18.05a38.19 38.19 0 00-4.29 2.38c-.33.28-.66.58-1 .89-.6.57-1.23 1.17-1.91 1.77a66.62 66.62 0 01-6.82 5l-.72.46a61.45 61.45 0 01-8.2 4.55 25.87 25.87 0 01-2.74 1.08z" fill="#f9a03b"/><path d="M10.86 55.52c1.35-.16 3.52-.41 6-.89.45-.12.89-.25 1.34-.39a16.12 16.12 0 001.48-.79 41.51 41.51 0 006.71-5.18c.49-.46.95-.92 1.39-1.35 1.5-1.46 2.68-2.69 3.4-3.23a25.7 25.7 0 013.78-2.14c.77-.37 1.5-.75 2.08-1 .12-.11-.69-1.46-.58-1.56h-.18a35 35 0 00-4.42 2.19l-1 .88c-.63.6-1.27 1.23-2 1.85A73.18 73.18 0 0122.23 49l-.71.49a75.48 75.48 0 01-8 4.89 19.86 19.86 0 01-2.66 1.14z" fill="#f89a2c"/><path class="cls-2" d="M32.73 40.45c-1 .84-1.95 1.83-3 2.81-1.46 1.35-4.29 3.56-7.22 5.69s-5.93 4.2-7.74 5.25a17.13 17.13 0 01-2.64 1.22A52.37 52.37 0 0019.56 54a32.23 32.23 0 008.25-6.27c2.27-2.25 3.93-4.26 4.64-4.79a35.4 35.4 0 016.23-2.85l-1.22-1.67h-.2a27.34 27.34 0 00-4.53 2.03z"/><path d="M16.56 53.87a85.05 85.05 0 007.25-5.1l.68-.53c2.56-2 4.84-4 6-5.06.91-.83 1.87-1.69 2.86-2.43a31.21 31.21 0 014.31-1.88h.18l.76 1c-.06 0 .2.45.14.46A21.07 21.07 0 0033 43.11a14.45 14.45 0 00-1.14 1.2c-.77.86-1.77 2-3 3.25a31.62 31.62 0 01-5.78 4.8A23.24 23.24 0 0121 53.54a49.75 49.75 0 01-6.91 1.53 17.18 17.18 0 002.47-1.2zM35 41.15v.08h-.22a9.35 9.35 0 00-1.25.83 2.31 2.31 0 011.25-.83z" fill="#eb8d1c"/><path d="M18.28 53.55a63.65 63.65 0 006.75-5l.62-.51c2.47-2.1 4.53-4.09 5.55-5A24.18 24.18 0 0133.94 41 34.3 34.3 0 0138 39.3h.15l.72 1c-.12 0 0 .31-.13.33a13.54 13.54 0 00-5.27 2.68c-.28.27-.63.68-1 1.17-.68.81-1.52 1.84-2.55 2.94A26.06 26.06 0 0124.34 52a22.48 22.48 0 01-2 1.09A45.62 45.62 0 0116 54.72a19.51 19.51 0 002.28-1.17zm17.53-12.37a4.53 4.53 0 00-2.5 1.65 17.19 17.19 0 012.5-1.65 2.1 2.1 0 01.43 0l-.05-.18z" fill="#e1871b"/><path d="M19.93 53.22a49.67 49.67 0 006.25-4.8l.55-.5C29.1 45.74 31 43.74 31.82 43a17.54 17.54 0 012.62-1.7c1.49-.72 3-1.29 3.85-1.61h.14l.66.91c-.17 0-.23.19-.39.22a9.36 9.36 0 00-4.8 2.59c-.28.31-.59.7-.93 1.14-.59.76-1.28 1.66-2.13 2.62a21.63 21.63 0 01-5.34 4.42 19.26 19.26 0 01-1.85 1 39.65 39.65 0 01-5.89 1.8 18.79 18.79 0 002.17-1.17zM36.75 41.1A6.86 6.86 0 0033 43.58a24.63 24.63 0 013.75-2.48 4.48 4.48 0 01.64-.07l-.07-.24z" fill="#d88219"/><path class="cls-3" d="M27.81 47.75c2.27-2.25 3.93-4.26 4.64-4.79a35.4 35.4 0 016.23-2.85l.62.85c-3.33.42-4.48 1.83-5.81 3.71a18.93 18.93 0 01-6.83 6.54 30.21 30.21 0 01-7.1 2.79 32.23 32.23 0 008.25-6.25zM37.68 41a9.14 9.14 0 00-5 3.31 33 33 0 015-3.31 5.16 5.16 0 01.87-.1l-.1-.32z"/><path class="cls-7" d="M32.69 44.34a28.88 28.88 0 00-3.1 2.88 28.54 28.54 0 00-2.42 3 29.21 29.21 0 00-3.11 5.54 22.14 22.14 0 00-1.67 5.75 8.28 8.28 0 002.49-1 9.39 9.39 0 001.54-3.29 33.9 33.9 0 012-5.65 29.68 29.68 0 014.27-7.23z"/><path d="M23 61.21A6.09 6.09 0 0025.45 60a13.05 13.05 0 001.78-3.65 38.86 38.86 0 012.31-5.93 7.74 7.74 0 01.55-1c1.37-2 2.6-3.36 3.41-4.49.26-.36.38-1.17.66-1.49-.25.13-.48.28-.71.43a29.66 29.66 0 00-2.63 2.24c-.55.53-1.07 1.07-1.56 1.61s-.66.84-1 1.27a30 30 0 00-3.15 5.62 27.45 27.45 0 00-1.63 5 4.65 4.65 0 01-.48 1.6z" fill="#ed9f47"/><path d="M23.63 61A5 5 0 0026 59.61a16.64 16.64 0 002.05-4 42.21 42.21 0 012.64-6.23 7 7 0 01.65-1c2-2.42 3.5-3.38 4-4.14.17-.23 0-1.41.24-1.62a7.19 7.19 0 00-.76.32 31.6 31.6 0 00-2.8 2.13c-.59.51-1.14 1-1.66 1.54-.34.41-.67.84-1 1.27a30.31 30.31 0 00-3.19 5.72 29 29 0 00-1.75 5.22 5.87 5.87 0 01-.79 2.18z" fill="#e39336"/><path d="M24.26 60.71a4.44 4.44 0 002.3-1.53 20.53 20.53 0 002.3-4.37 44 44 0 013-6.53 6.27 6.27 0 01.75-1 35.6 35.6 0 014.67-3.77c.08-.12-.27-1.66-.18-1.76a6 6 0 00-.81.2 30.91 30.91 0 00-3 2c-.62.47-1.2 1-1.75 1.45-.35.41-.68.84-1 1.29a31.46 31.46 0 00-3.24 5.8A32.44 32.44 0 0025.45 58a7.66 7.66 0 01-1.19 2.71z" fill="#d88726"/><path class="cls-3" d="M32.69 44.34a29.68 29.68 0 00-4.3 7.18 33.9 33.9 0 00-2 5.65 9.39 9.39 0 01-1.54 3.29c1.92-.4 3.41-3.31 4.79-6.44s2.66-6.48 4.16-7.77c3.52-3 5.3-3.42 5.3-3.42l-.58-1.9a5.16 5.16 0 00-.87.1 33 33 0 00-4.96 3.31z"/><path d="M36.44 27.31c3.82 3.43 5.16 9 6.3 11.64a4.57 4.57 0 002.67 2.71c-2-3.09.61-7.46-6.4-14.46-3.62-3.63-6.06-6-8.3-8.69a64.81 64.81 0 01-7-11A31.41 31.41 0 0029.86 21a49.13 49.13 0 006.58 6.31z" fill="#006b99"/><path d="M22.75 5.6a56.15 56.15 0 003.73 10.83A45.29 45.29 0 0029 21.11a31.73 31.73 0 005.06 6.34c.41.39.79.78 1.15 1.17a36.49 36.49 0 014 6.16c2 2.67 3.19 4.93 4.25 6.15 1.45 1.69 2.54 1.48 2.54 1.54a4.66 4.66 0 01-1.26-2.73v-.11a22.26 22.26 0 01-1-2.71 19.33 19.33 0 00-5.42-9.7C35.07 24 32.23 21.5 29.74 18a38.14 38.14 0 01-3.41-5.91c-1.09-1.83-2.25-3.93-3.58-6.49z" fill="#4b7da5"/><path d="M21.79 3.73a95.64 95.64 0 003.82 11.81c.78 2 1.63 3.94 2.5 5.7a32.09 32.09 0 004.76 7.4A12.29 12.29 0 0134 29.93c1.41 1.9 2.6 4.52 4.22 7 2.73 2.92 4.57 5 6 5.95 2.26 1.56 3.07.51 2.51.37A3.91 3.91 0 0145 40.43v-.13a8.24 8.24 0 01-1.52-2.7c-.82-2.54-2-6.78-5.71-10.35-3-2.84-6.23-5.46-9-9.82a35.54 35.54 0 01-3.32-6.9c-1.1-1.91-2.29-4.12-3.66-6.8z" fill="#7a94b4"/><path d="M20.84 1.87c.22 1 1.83 6.77 3.89 12.78.78 2.3 1.64 4.61 2.51 6.72 1.58 3.85 3.21 7 4.45 8.46a10.39 10.39 0 011 1.41c1.3 2.1 2.47 5.07 4.45 7.88 3.51 3.16 6 5 7.69 5.75 3.07 1.35 3.63-.46 2.43-.8a3.66 3.66 0 01-2-3 1.39 1.39 0 01-.06-.13 5.57 5.57 0 01-2.1-2.71c-1-2.6-2.23-7.49-6-11-2.64-2.46-6.33-5.21-9.28-10.39A34.19 34.19 0 0124.58 9c-1.12-2-2.33-4.34-3.74-7.13z" fill="#a6afc4"/><path d="M30.51 31c1.61 2.08 2.68 6.36 5.61 10.27 12.41 9.86 14.57 4.4 11.78 3.58a3.61 3.61 0 01-2.41-3.07.64.64 0 01-.08-.14A4.57 4.57 0 0142.74 39c-1.14-2.67-2.48-8.21-6.3-11.64C33.2 24.39 26.38 20 23.7 7.47A281.53 281.53 0 0119.89 0s1.75 6.59 4 13.76S28.71 28.68 30.51 31z" fill="#d7d0d7"/><path class="cls-21" d="M46.13 48.17a38.06 38.06 0 0014.34 1.12c25.49-2.13 61.24-2.1 61.24-2.1l3-4.25s-42.47 2.39-64.45 2c-2.35.6-4.24 1.27-4.92 2-.95.91-5.84 1.17-9.21 1.23z"/><path d="M47.9 44.87c2.79.82.63 6.28-11.78-3.58a19.07 19.07 0 0010 6.88c3.37-.06 8.26-.32 9.25-1.31.68-.68 2.57-1.35 4.92-2-6.34-.12-11-.47-12.4-1.18a6.24 6.24 0 01-2.41-1.93 3.61 3.61 0 002.42 3.12z" fill="#4c9f97"/><path class="cls-21" d="M57.38 10s9.35 10.56 15.69 13 23.55 10.86 28.38 15.69 9.4 8.53 11.77 8.76L138 45.91s-12.38-.91-19.62-6.64-11.17-9.36-19.92-12.38S68.85 21.46 57.38 10z"/><path class="cls-21" d="M55.27 67.34s8.45-10 15.39-11.78 36.22-6.94 39.24-10.26l28.07.61S120.46 57.07 113.82 58 93.6 55.87 83 57.68s-20.19 1.2-27.73 9.66z"/></symbol><symbol id="Deleted_Symbol_3" data-name="Deleted Symbol 3" viewBox="0 0 67.34 137.97"><use width="137.97" height="67.34" transform="rotate(90 33.67 33.67)" xlink:href="#Deleted_Symbol"/></symbol><symbol id="Bird_of_Paradise" data-name="Bird of Paradise" viewBox="0 0 67.34 137.97"><use width="67.34" height="137.97" xlink:href="#Deleted_Symbol_3"/></symbol><symbol id="Deleted_Symbol_1" data-name="Deleted Symbol 1" viewBox="0 0 180.81 94.55"><path class="cls-1" d="M0 0h180.81v94.44H0z"/><path class="cls-23" d="M66.51 63.37s95.41 1.63 111.82 4.92c0 0-7.7-6.45-4.42-8.91 0 0-98.37-1.75-107.4-.93s-1.63 4.1 0 4.92z"/><path class="cls-23" d="M68.41 58.32a5.83 5.83 0 00-5.24-4.45c-2.21-.19-5.48.39-8.79.55s-6.68-.07-9.09-1.89-4.51 1.47-5.71 6.22-1.5 10.88-.25 14.73c2.5 7.69 7.5 5.38 9.62 2.11s6.92-5 9.61-6.15 11.78-1.51 9.85-11.12z"/><path d="M39.38 73.53c2.47 7.61 7.43 5.32 9.53 2.07s6.87-5 9.53-6.12c2.18-1 8.6-1.42 9.85-6.74.29-1.2-.36-2.65 0-4.41A5.81 5.81 0 0063 53.87c-2.21-.2-5.46.38-8.75.57s-6.63 0-9-1.83-4.48 1.52-5.68 6.23c-.2.83-.39 1.7-.54 2.59-.67 4.21-.68 8.93.35 12.1z" fill="#768c33"/><path d="M39.42 73.58c2.45 7.53 7.36 5.25 9.45 2s6.82-4.93 9.45-6.09c2.17-1 8.52-1.49 9.8-6.78.29-1.21-.43-2.66 0-4.4a5.81 5.81 0 00-5.2-4.47c-2.19-.21-5.42.37-8.7.58s-6.57 0-8.94-1.75-4.44 1.54-5.63 6.23c-.2.82-.38 1.69-.53 2.58-.72 4.23-.73 8.94.3 12.1z" fill="#778c33"/><path d="M39.46 73.62c2.42 7.46 7.3 5.2 9.37 2s6.77-4.89 9.37-6.06c2.15-1 8.46-1.55 9.75-6.82.29-1.21-.38-2.65 0-4.4a5.81 5.81 0 00-5.18-4.47c-2.18-.22-5.39.37-8.64.59s-6.53 0-8.87-1.68-4.43 1.58-5.6 6.22c-.2.82-.38 1.69-.53 2.58-.69 4.2-.69 8.89.33 12.04z" fill="#788d33"/><path d="M39.5 73.67c2.4 7.38 7.23 5.13 9.3 2s6.71-4.85 9.29-6c2.13-1 8.38-1.62 9.68-6.86.3-1.21-.35-2.65 0-4.39a5.8 5.8 0 00-5.16-4.48c-2.18-.23-5.37.37-8.6.6s-6.47.06-8.8-1.61-4.38 1.61-5.54 6.25c-.2.82-.38 1.68-.52 2.57-.67 4.1-.67 8.77.35 11.92z" fill="#798d33"/><path d="M39.55 73.72c2.37 7.3 7.16 5.07 9.21 1.91s6.66-4.82 9.21-6c2.11-1 8.31-1.68 9.63-6.89.3-1.21-.32-2.65 0-4.38a5.8 5.8 0 00-5.14-4.49c-2.16-.24-5.33.37-8.55.61s-6.42.1-8.73-1.53-4.34 1.63-5.49 6.25c-.2.82-.37 1.68-.52 2.56-.65 4.16-.65 8.82.38 11.96z" fill="#7a8e34"/><path d="M39.59 73.76c2.35 7.23 7.1 5 9.13 1.88s6.61-4.79 9.13-6c2.1-1 8.25-1.75 9.57-6.93.31-1.21-.32-2.65 0-4.37a5.78 5.78 0 00-5.12-4.5c-2.15-.24-5.3.37-8.49.62s-6.37.13-8.67-1.46-4.3 1.67-5.44 6.26c-.2.82-.37 1.67-.52 2.56-.62 4.18-.61 8.81.41 11.94z" fill="#7b8e34"/><path d="M39.63 73.81c2.32 7.15 7 4.94 9.06 1.83s6.55-4.74 9-5.93c2.08-1 8.18-1.81 9.52-7 .32-1.21-.29-2.65.06-4.36a5.76 5.76 0 00-5.09-4.51c-2.15-.25-5.28.36-8.45.64s-6.32.15-8.59-1.39-4.28 1.69-5.4 6.26c-.2.81-.37 1.67-.51 2.55-.63 4.17-.62 8.78.4 11.91z" fill="#7c8f34"/><path d="M39.67 73.86c2.3 7.07 7 4.88 9 1.79s6.5-4.71 9-5.9c2.06-1 8.1-1.88 9.46-7 .32-1.21-.27-2.64.08-4.35a5.77 5.77 0 00-5.08-4.52c-2.14-.26-5.25.36-8.4.65s-6.26.19-8.52-1.32-4.23 1.73-5.35 6.27c-.2.81-.37 1.67-.51 2.54-.71 4.12-.69 8.72.32 11.84z" fill="#7d8f34"/><path d="M39.72 73.9c2.27 7 6.89 4.83 8.89 1.76s6.46-4.66 8.89-5.87c2-1 8-2 9.4-7.05.33-1.21-.26-2.64.1-4.35a5.77 5.77 0 00-5-4.52c-2.13-.27-5.22.36-8.35.66s-6.22.22-8.45-1.25-4.26 1.72-5.36 6.28c-.2.81-.36 1.66-.5 2.54-.66 4.11-.64 8.69.38 11.8z" fill="#7e9034"/><path d="M39.76 74c2.24 6.92 6.83 4.76 8.81 1.72S55 71 57.38 69.83c2-1 8-2 9.35-7.09.33-1.21-.24-2.64.11-4.34a5.76 5.76 0 00-5-4.53c-2.12-.28-5.19.35-8.3.67s-6.16.25-8.38-1.17-4.16 1.78-5.29 6.28c-.19.81-.36 1.66-.5 2.53-.65 4.1-.63 8.67.39 11.82z" fill="#7f9035"/><path d="M39.8 74c2.22 6.83 6.76 4.69 8.74 1.67s6.35-4.6 8.72-5.8c2-1 7.91-2.08 9.3-7.13.33-1.21-.23-2.64.12-4.33a5.73 5.73 0 00-5-4.54c-2.1-.29-5.16.35-8.25.68s-6.11.29-8.31-1.1-4.12 1.81-5.22 6.29c-.19.81-.36 1.65-.49 2.52-.64 4.09-.62 8.64.39 11.74z" fill="#809135"/><path d="M39.84 74.05c2.2 6.76 6.7 4.63 8.66 1.63s6.3-4.57 8.65-5.78c2-1 7.84-2.14 9.23-7.16.34-1.21-.2-2.63.15-4.32a5.75 5.75 0 00-5-4.55c-2.1-.3-5.14.34-8.2.69s-6.06.32-8.24-1-4.1 1.84-5.17 6.29c-.19.8-.35 1.65-.49 2.51-.63 4.06-.6 8.64.41 11.69z" fill="#819235"/><path d="M39.89 74.09c2.17 6.68 6.62 4.58 8.57 1.6s6.25-4.54 8.57-5.75c2-1 7.77-2.21 9.18-7.2.34-1.21-.17-2.63.16-4.31a5.74 5.74 0 00-5-4.56c-2.09-.31-5.1.34-8.15.71s-6 .35-8.17-1S41 55.49 40 59.92c-.19.8-.35 1.65-.49 2.51-.66 4.06-.63 8.57.38 11.66z" fill="#829235"/><path d="M39.93 74.14c2.14 6.6 6.56 4.51 8.5 1.55s6.19-4.5 8.48-5.71c2-1 7.7-2.27 9.12-7.24.35-1.21-.15-2.63.18-4.3a5.71 5.71 0 00-4.94-4.57c-2.09-.32-5.08.34-8.11.72s-5.95.38-8.1-.88S41 55.6 40 60c-.19.8-.35 1.64-.48 2.5-.63 4.06-.6 8.56.41 11.64z" fill="#839336"/><path d="M40 74.19c2.12 6.52 6.49 4.44 8.42 1.51s6.14-4.47 8.4-5.68c2-1 7.64-2.34 9.07-7.29.35-1.21-.13-2.61.2-4.29a5.75 5.75 0 00-4.93-4.57c-2.07-.33-5.05.33-8.05.73s-5.91.42-8-.81-4 1.93-5 6.31c-.19.8-.35 1.64-.48 2.49-.7 4.04-.63 8.53.37 11.6z" fill="#849336"/><path d="M40 74.24c2.1 6.44 6.43 4.38 8.34 1.47s6.09-4.44 8.32-5.65c1.93-1.06 7.57-2.41 9-7.33.35-1.21-.13-2.61.21-4.28A5.73 5.73 0 0061 53.87c-2.07-.33-5 .33-8 .74s-5.85.45-8-.74-4 2-5 6.32c-.19.8-.35 1.63-.47 2.49-.53 4.03-.53 8.49.47 11.56z" fill="#859436"/><path d="M40.06 74.28c2.06 6.37 6.35 4.32 8.25 1.43s6-4.39 8.25-5.61c1.91-1.06 7.5-2.48 9-7.37.36-1.21-.1-2.61.23-4.27a5.72 5.72 0 00-4.88-4.59c-2.06-.34-5 .32-8 .75s-5.8.48-7.91-.62-3.93 2-4.94 6.32c-.19.79-.34 1.63-.47 2.48-.59 3.98-.54 8.42.47 11.48z" fill="#869436"/><path d="M40.1 74.33c2 6.29 6.29 4.26 8.18 1.39s6-4.36 8.16-5.59c1.9-1.06 7.44-2.53 8.9-7.4.36-1.21-.08-2.61.24-4.26a5.7 5.7 0 00-4.86-4.6c-2-.35-5 .32-7.9.76s-5.75.53-7.82-.63-3.89 2-4.89 6.33c-.19.79-.34 1.62-.47 2.47-.59 4.05-.54 8.48.46 11.53z" fill="#879537"/><path d="M40.14 74.38c2 6.21 6.23 4.2 8.1 1.35s5.94-4.33 8.08-5.56c1.88-1.07 7.37-2.6 8.84-7.44.37-1.21-.06-2.61.27-4.25a5.73 5.73 0 00-4.84-4.61c-2-.36-4.94.32-7.86.78S47 55.2 45 54.13s-3.85 2-4.84 6.33c-.19.79-.34 1.62-.46 2.47-.61 3.99-.56 8.4.44 11.45z" fill="#889537"/><path d="M40.18 74.42c2 6.14 6.16 4.14 8 1.32s5.89-4.3 8-5.53c1.87-1.08 7.31-2.67 8.79-7.48.38-1.21 0-2.6.28-4.24a5.72 5.72 0 00-4.82-4.62c-2-.37-4.9.31-7.8.79s-5.63.58-7.63-.45-3.82 2.08-4.8 6.34c-.19.79-.33 1.62-.46 2.46-.61 3.99-.56 8.37.44 11.41z" fill="#899637"/><path d="M40.22 74.47c2 6.06 6.1 4.07 8 1.27s5.83-4.26 7.92-5.49c1.85-1.09 7.23-2.73 8.73-7.52.38-1.21 0-2.6.29-4.24a5.71 5.71 0 00-4.79-4.62c-2-.37-4.88.31-7.76.8s-5.6.62-7.61-.38-3.79 2.11-4.75 6.35c-.18.79-.33 1.61-.45 2.45-.63 3.97-.57 8.35.42 11.38z" fill="#8a9637"/><path d="M40.27 74.52c1.94 6 6 4 7.86 1.23s5.78-4.23 7.84-5.46c1.83-1.1 7.17-2.8 8.67-7.56.39-1.21 0-2.6.31-4.23a5.7 5.7 0 00-4.77-4.63c-2-.38-4.85.31-7.71.81s-5.54.65-7.54-.3-3.75 2.13-4.7 6.35c-.18.78-.33 1.61-.45 2.45-.57 3.95-.51 8.31.49 11.34z" fill="#8b9738"/><path d="M40.31 74.57c1.92 5.9 6 3.94 7.78 1.19s5.73-4.2 7.76-5.43c1.82-1.11 7.1-2.87 8.62-7.6.39-1.21 0-2.6.33-4.22a5.71 5.71 0 00-4.8-4.64c-2-.39-4.81.3-7.65.82s-5.5.69-7.47-.23-3.72 2.17-4.67 6.36c-.17.78-.32 1.6-.44 2.44-.52 3.95-.46 8.28.54 11.31z" fill="#8c9838"/><path d="M40.35 74.62c1.91 5.82 5.89 3.88 7.7 1.15s5.68-4.17 7.68-5.41c1.81-1.11 7-2.92 8.57-7.63.39-1.21 0-2.6.34-4.21a5.7 5.7 0 00-4.73-4.65c-2-.4-4.79.3-7.61.83s-5.44.72-7.4-.16-3.68 2.2-4.61 6.37c-.18.78-.32 1.6-.44 2.43-.56 3.94-.49 8.26.5 11.28z" fill="#8d9838"/><path d="M40.39 74.66c1.88 5.75 5.83 3.82 7.63 1.11s5.62-4.13 7.6-5.37c1.78-1.12 7-3 8.5-7.67.4-1.22 0-2.59.36-4.2a5.69 5.69 0 00-4.71-4.66c-2-.41-4.76.29-7.56.84s-5.39.76-7.33-.08-3.64 2.22-4.57 6.37c-.17.78-.31 1.6-.43 2.43-.55 3.92-.47 8.22.51 11.23z" fill="#8e9938"/><path d="M40.44 74.71c1.85 5.66 5.75 3.76 7.54 1.07s5.58-4.1 7.52-5.34c1.77-1.13 6.9-3.06 8.45-7.71.4-1.22.07-2.59.38-4.19a5.71 5.71 0 00-4.69-4.67c-2-.42-4.73.29-7.51.86s-5.34.78-7.26 0-3.62 2.27-4.53 6.36c-.17.78-.31 1.59-.42 2.42-.55 3.91-.47 8.19.52 11.2z" fill="#8f9939"/><path d="M40.48 74.76c1.83 5.58 5.69 3.69 7.46 1s5.53-4.07 7.44-5.31c1.76-1.14 6.84-3.13 8.39-7.75.41-1.22.1-2.59.4-4.19a5.71 5.71 0 00-4.67-4.67c-2-.43-4.7.29-7.46.87s-5.28.81-7.19.06-3.57 2.28-4.48 6.38c-.17.77-.3 1.59-.42 2.41a26.92 26.92 0 00.53 11.2z" fill="#909a39"/><path d="M40.52 74.8c1.81 5.51 5.63 3.64 7.39 1s5.47-4 7.35-5.27 6.74-3.2 8.34-7.8c.41-1.22.11-2.58.41-4.18a5.69 5.69 0 00-4.65-4.68c-2-.44-4.67.28-7.41.88s-5.23.85-7.11.13-3.55 2.31-4.44 6.39c-.17.77-.3 1.58-.42 2.41a26.84 26.84 0 00.54 11.12z" fill="#919a39"/><path d="M40.56 74.85c1.78 5.43 5.56 3.57 7.31 1s5.42-4 7.27-5.24 6.71-3.26 8.29-7.83c.42-1.22.13-2.58.42-4.17a5.67 5.67 0 00-4.62-4.69c-1.95-.45-4.64.27-7.36.89-2.57.58-5.18.88-7 .21s-3.51 2.34-4.39 6.39c-.17.77-.3 1.58-.41 2.4a26.7 26.7 0 00.49 11.04z" fill="#929b39"/><path d="M40.61 74.9c1.75 5.35 5.49 3.51 7.22.91s5.37-4 7.2-5.22 6.64-3.32 8.22-7.86c.43-1.22.16-2.58.45-4.16a5.71 5.71 0 00-4.61-4.7c-1.93-.45-4.61.27-7.31.9-2.54.59-5.13.92-7 .28s-3.47 2.37-4.34 6.4c-.16.77-.3 1.57-.41 2.39a26.71 26.71 0 00.58 11.06z" fill="#939c3a"/><path d="M40.65 74.94c1.73 5.28 5.42 3.45 7.14.88s5.32-3.94 7.12-5.19 6.58-3.38 8.17-7.9c.43-1.22.17-2.58.46-4.15A5.69 5.69 0 0059 53.87c-1.92-.46-4.58.27-7.26.91-2.51.61-5.07.95-6.9.35s-3.44 2.41-4.3 6.41c-.16.77-.3 1.57-.4 2.39a26.64 26.64 0 00.51 11.01z" fill="#949c3a"/><path d="M40.69 75c1.71 5.2 5.36 3.39 7.07.83s5.26-3.9 7-5.15 6.51-3.45 8.11-7.94c.44-1.22.19-2.57.48-4.14a5.69 5.69 0 00-4.56-4.72c-1.92-.47-4.55.26-7.21.92-2.49.63-5 1-6.84.43s-3.4 2.43-4.25 6.41c-.16.76-.29 1.57-.4 2.38a26.83 26.83 0 00.6 10.98z" fill="#959d3a"/><path d="M40.73 75c1.68 5.12 5.29 3.32 7 .79s5.21-3.87 7-5.12 6.45-3.52 8.06-8c.44-1.22.21-2.57.5-4.14a5.7 5.7 0 00-4.55-4.72c-1.91-.48-4.52.26-7.16.94-2.46.63-5 1-6.77.49s-3.36 2.46-4.2 6.42c-.16.76-.29 1.56-.39 2.37A26.69 26.69 0 0040.73 75z" fill="#969d3b"/><path d="M40.77 75.09c1.66 5 5.23 3.26 6.91.75s5.16-3.84 6.87-5.09 6.39-3.58 8-8c.44-1.22.23-2.57.51-4.13a5.69 5.69 0 00-4.52-4.73c-1.9-.49-4.5.25-7.12 1-2.43.64-4.92 1-6.69.57s-3.33 2.49-4.16 6.42c-.16.76-.29 1.56-.39 2.37a26.86 26.86 0 00.59 10.84z" fill="#979e3b"/><path d="M40.82 75.13c1.63 5 5.15 3.2 6.83.71s5.1-3.8 6.79-5 6.32-3.65 7.94-8.06c.45-1.22.26-2.57.53-4.12a5.69 5.69 0 00-4.5-4.74c-1.89-.5-4.46.25-7.06 1-2.41.66-4.87 1.08-6.63.64S41.43 58 40.61 61.9c-.16.76-.28 1.55-.39 2.36a26.63 26.63 0 00.6 10.87z" fill="#989f3b"/><path d="M40.86 75.18c1.61 4.89 5.09 3.14 6.75.67s5-3.78 6.71-5 6.25-3.72 7.89-8.1c.45-1.22.27-2.56.54-4.11.1-.56-.77-3.74-4.48-4.75-1.88-.51-4.43.24-7 1-2.38.67-4.82 1.12-6.56.71s-3.27 2.5-4.07 6.4c-.16.76-.28 1.55-.38 2.35a26.49 26.49 0 00.6 10.83z" fill="#999f3c"/><path d="M40.9 75.23c1.58 4.81 5 3.07 6.67.63s5-3.75 6.63-5 6.19-3.77 7.84-8.13c.46-1.22.29-2.56.56-4.1.1-.58-.78-3.74-4.46-4.76-1.87-.52-4.41.24-7 1-2.35.69-4.76 1.15-6.48.79s-3.23 2.58-4 6.44c-.16.76-.28 1.54-.38 2.35a26.66 26.66 0 00.62 10.78z" fill="#9aa03c"/><path d="M40.94 75.28c1.56 4.73 5 3 6.59.59s5-3.72 6.55-5 6.13-3.84 7.78-8.17c.47-1.22.31-2.56.58-4.09.1-.6-.77-3.73-4.44-4.77-1.86-.53-4.37.23-6.91 1-2.33.69-4.72 1.18-6.42.86s-3.19 2.6-4 6.44c-.16.75-.28 1.54-.37 2.34a26.51 26.51 0 00.64 10.8z" fill="#9ba03c"/><path d="M41 75.32c1.53 4.66 4.89 3 6.51.55s4.9-3.68 6.47-4.93S60 67 61.69 62.73c.47-1.23.33-2.56.59-4.09.11-.6-.77-3.71-4.41-4.77-1.86-.54-4.35.23-6.87 1a15.46 15.46 0 01-6.35.93c-1.68-.28-3.15 2.63-3.92 6.45-.15.75-.27 1.54-.37 2.33A26.46 26.46 0 0041 75.32z" fill="#9ca13c"/><path d="M41 75.37c1.51 4.58 4.82 2.89 6.43.51s4.85-3.65 6.39-4.9 6-4 7.66-8.25c.48-1.23.35-2.55.61-4.08.11-.62-.77-3.7-4.39-4.78-1.84-.54-4.32.22-6.81 1a15.91 15.91 0 01-6.28 1c-1.66-.24-3.12 2.67-3.88 6.46-.15.75-.27 1.53-.37 2.33A26.45 26.45 0 0041 75.37z" fill="#9da13d"/><path d="M41.07 75.42c1.48 4.5 4.76 2.82 6.35.47s4.8-3.63 6.31-4.87 5.93-4 7.61-8.29a21.6 21.6 0 00.66-4.07c.11-.64-.77-3.7-4.37-4.79-1.84-.55-4.29.22-6.77 1A15.92 15.92 0 0144.62 56c-1.64-.2-3.08 2.7-3.83 6.47-.15.75-.27 1.53-.36 2.32a26.48 26.48 0 00.64 10.63z" fill="#9fa23d"/><path d="M41.12 75.46c1.45 4.43 4.68 2.77 6.27.43s4.74-3.59 6.22-4.83 5.87-4.11 7.56-8.33a21.59 21.59 0 00.64-4.06c.11-.65-.77-3.69-4.35-4.8-1.83-.56-4.26.21-6.72 1a16.56 16.56 0 01-6.13 1.15c-1.63-.16-3 2.73-3.79 6.47-.15.74-.26 1.52-.36 2.31a26.26 26.26 0 00.66 10.66z" fill="#a0a33d"/><path d="M41.16 75.51c1.43 4.35 4.62 2.7 6.19.39s4.65-3.56 6.15-4.81 5.8-4.16 7.49-8.36a19.36 19.36 0 00.66-4c.12-.67-.76-3.68-4.33-4.81-1.81-.57-4.22.21-6.66 1.05a17 17 0 01-6.07 1.23c-1.61-.13-3 2.75-3.74 6.47-.15.74-.26 1.52-.35 2.3a26.12 26.12 0 00.66 10.54z" fill="#a1a33e"/><path d="M41.2 75.56c1.41 4.27 4.55 2.64 6.11.35s4.64-3.53 6.07-4.78 5.74-4.23 7.44-8.4a19.89 19.89 0 00.68-4c.11-.69-.77-3.68-4.31-4.82-1.81-.58-4.2.2-6.62 1.06a17.54 17.54 0 01-6 1.3c-1.59-.08-3 2.78-3.69 6.48a27 27 0 00-.35 2.3 26.29 26.29 0 00.67 10.51z" fill="#a2a43e"/><path d="M41.24 75.61c1.38 4.19 4.49 2.57 6 .31s4.59-3.51 6-4.75 5.68-4.3 7.38-8.44a18.57 18.57 0 00.7-4c.11-.7-.77-3.66-4.29-4.82-1.8-.59-4.17.19-6.57 1.07a18.13 18.13 0 01-5.92 1.37c-1.57 0-2.94 2.81-3.65 6.48-.15.75-.26 1.52-.35 2.3a26.32 26.32 0 00.7 10.48z" fill="#a3a43e"/><path d="M41.29 75.66c1.35 4.11 4.41 2.51 6 .26s4.53-3.47 5.9-4.71 5.62-4.36 7.33-8.48a18 18 0 00.71-4c.12-.71-.76-3.65-4.27-4.83-1.78-.6-4.13.19-6.51 1.09a18.9 18.9 0 01-5.86 1.44c-1.55 0-2.91 2.84-3.6 6.48-.15.75-.25 1.52-.34 2.29a26.17 26.17 0 00.64 10.46z" fill="#a4a53e"/><path d="M41.33 75.7c1.33 4 4.35 2.45 5.87.23s4.48-3.44 5.82-4.68 5.56-4.43 7.28-8.52a17.87 17.87 0 00.72-4c.12-.73-.76-3.64-4.24-4.84-1.78-.61-4.11.18-6.47 1.1a19.41 19.41 0 01-5.79 1.51C43 56.52 41.66 59.35 41 63c-.15.73-.25 1.5-.34 2.28a26.09 26.09 0 00.67 10.42z" fill="#a5a63f"/><path d="M41.37 75.75c1.3 4 4.29 2.39 5.79.19s4.43-3.42 5.75-4.65 5.49-4.5 7.21-8.56a17.85 17.85 0 00.75-4c.12-.75-.76-3.64-4.23-4.85-1.77-.62-4.08.18-6.42 1.11a20.65 20.65 0 01-5.71 1.59c-1.51.07-2.84 2.9-3.51 6.5-.14.73-.25 1.5-.33 2.27a25.94 25.94 0 00.7 10.4z" fill="#a6a63f"/><path d="M41.41 75.79c1.28 3.88 4.22 2.33 5.71.15s4.38-3.38 5.67-4.61 5.43-4.56 7.16-8.6a16.8 16.8 0 00.76-4c.12-.77-.76-3.63-4.2-4.86-1.76-.63-4 .17-6.37 1.12a21.12 21.12 0 01-5.65 1.66c-1.49.11-2.8 2.93-3.47 6.5-.13.74-.23 1.51-.32 2.27a26.09 26.09 0 00.71 10.37z" fill="#a7a73f"/><path d="M41.45 75.84c1.26 3.8 4.16 2.26 5.64.11s4.32-3.36 5.58-4.59 5.37-4.62 7.1-8.63a15.87 15.87 0 00.78-4c.12-.78-.76-3.62-4.18-4.87-1.75-.64-4 .17-6.32 1.13a22.15 22.15 0 01-5.58 1.73c-1.47.16-2.76 3-3.42 6.52-.13.73-.23 1.49-.32 2.26a26.09 26.09 0 00.72 10.34z" fill="#a8a740"/><path d="M41.5 75.89c1.23 3.72 4.08 2.2 5.55.07s4.27-3.33 5.5-4.56c1.39-1.38 5.3-4.69 7.05-8.67a15.77 15.77 0 00.79-4c.13-.79-.75-3.61-4.16-4.87-1.74-.64-4 .16-6.27 1.14a24.11 24.11 0 01-5.5 1.81c-1.46.19-2.73 3-3.38 6.52-.13.73-.23 1.48-.31 2.25a26.12 26.12 0 00.73 10.31z" fill="#a9a840"/><path d="M41.54 75.94c1.2 3.64 4 2.13 5.47 0s4.22-3.29 5.43-4.52c1.37-1.39 5.23-4.75 7-8.71a15.87 15.87 0 00.81-4c.12-.81-.76-3.6-4.14-4.88-1.73-.65-4 .15-6.22 1.16a25.16 25.16 0 01-5.44 1.87c-1.43.24-2.69 3-3.33 6.53-.13.73-.23 1.48-.31 2.24a26.16 26.16 0 00.73 10.31z" fill="#aaa940"/><path d="M41.58 76c1.18 3.57 4 2.08 5.4 0s4.16-3.27 5.34-4.49c1.35-1.41 5.17-4.82 6.93-8.75a15 15 0 00.83-4c.13-.83-.75-3.59-4.12-4.89-1.72-.66-3.96.13-6.17 1.13a27.52 27.52 0 01-5.37 2c-1.41.27-2.65 3-3.28 6.52-.13.73-.22 1.49-.3 2.25A26.11 26.11 0 0041.58 76z" fill="#aba941"/><path d="M41.62 76c1.16 3.49 3.89 2 5.32 0s4.11-3.25 5.26-4.46c1.34-1.42 5.11-4.88 6.88-8.79a15.05 15.05 0 00.84-4c.13-.84-.75-3.59-4.09-4.9-1.72-.67-3.9.14-6.13 1.18a29.24 29.24 0 01-5.29 2c-1.4.31-2.62 3.08-3.24 6.53-.13.73-.22 1.48-.3 2.24a26.12 26.12 0 00.75 10.2z" fill="#acaa41"/><path d="M41.67 76.08c1.12 3.41 3.81 2 5.23-.09s4.06-3.22 5.18-4.43c1.33-1.44 5.05-5 6.82-8.83a14.24 14.24 0 00.87-3.95c.12-.86-.76-3.58-4.08-4.91-1.71-.68-3.87.13-6.07 1.19a32 32 0 01-5.23 2.09c-1.38.36-2.58 3.11-3.19 6.55-.13.72-.22 1.47-.3 2.22a26 26 0 00.77 10.16z" fill="#adab41"/><path d="M41.71 76.13c1.1 3.33 3.75 1.88 5.16-.14s4-3.19 5.09-4.4c1.31-1.44 5-5 6.77-8.86a14.25 14.25 0 00.88-3.94c.13-.88-.75-3.57-4-4.92-1.7-.69-3.85.13-6 1.2a35.81 35.81 0 01-5.15 2.17c-1.36.39-2.55 3.14-3.15 6.54-.12.73-.22 1.47-.29 2.23a26 26 0 00.69 10.12z" fill="#aeab42"/><path d="M41.75 76.17c1.08 3.26 3.69 1.83 5.08-.17s4-3.16 5-4.37c1.29-1.45 4.92-5.07 6.71-8.9a13.91 13.91 0 00.89-3.94c.13-.88-.75-3.56-4-4.92-1.69-.7-3.81.12-6 1.21a38.13 38.13 0 01-5.08 2.24c-1.34.43-2.51 3.17-3.1 6.55-.12.72-.21 1.47-.29 2.22a25.94 25.94 0 00.79 10.08z" fill="#afac42"/><path d="M41.79 76.22c1.06 3.18 3.62 1.76 5-.21s3.9-3.14 4.94-4.34c1.28-1.47 4.86-5.14 6.65-8.94a13.52 13.52 0 00.91-3.93c.14-.9-.74-3.55-4-4.93-1.68-.71-3.78.11-5.92 1.23a47.65 47.65 0 01-5 2.31c-1.37.47-2.5 3.19-3.08 6.59a31 31 0 00-.28 2.21 26 26 0 00.78 10.01z" fill="#b1ad42"/><path d="M41.84 76.27c1 3.1 3.55 1.7 4.91-.25s3.84-3.11 4.86-4.31c1.26-1.48 4.8-5.2 6.6-9a13.23 13.23 0 00.93-3.92c.13-.92-.75-3.54-4-4.94-1.67-.72-3.76.11-5.88 1.24a50.63 50.63 0 01-4.94 2.38c-1.31.51-2.44 3.23-3 6.56a31 31 0 00-.28 2.21 25.79 25.79 0 00.8 10.03z" fill="#b2ad43"/><path d="M41.88 76.32c1 3 3.48 1.63 4.84-.3s3.78-3.08 4.77-4.27c1.25-1.5 4.74-5.27 6.55-9a13.25 13.25 0 00.96-3.93c.13-.94-.75-3.53-4-5-1.66-.73-3.72.1-5.83 1.25-1.75 1-3.57 1.9-4.87 2.46s-2.4 3.25-3 6.56c-.12.72-.21 1.46-.27 2.2a25.84 25.84 0 00.85 10.03z" fill="#b3ae43"/><path d="M41.92 76.36c1 3 3.42 1.58 4.76-.33s3.73-3.06 4.7-4.24c1.22-1.51 4.67-5.34 6.48-9.06a12.68 12.68 0 001-3.9c.14-.95-.74-3.53-3.94-5-1.66-.74-3.7.09-5.78 1.26-1.73 1-3.52 1.93-4.81 2.53s-2.36 3.28-2.91 6.57c-.12.72-.2 1.45-.27 2.19a25.8 25.8 0 00.77 9.98z" fill="#b4ae43"/><path d="M42 76.41c.95 2.87 3.35 1.51 4.68-.37s3.68-3 4.62-4.22c1.21-1.52 4.61-5.39 6.43-9.09a12.35 12.35 0 001-3.89c.14-1-.74-3.52-3.92-5-1.64-.74-3.67.08-5.73 1.27-1.7 1-3.46 2-4.73 2.6s-2.35 3.35-2.94 6.61c-.12.72-.2 1.45-.27 2.19a25.82 25.82 0 00.86 9.9z" fill="#b5af44"/><path d="M42 76.46c.92 2.79 3.28 1.45 4.6-.42s3.62-3 4.53-4.18c1.19-1.53 4.56-5.46 6.37-9.13a12.39 12.39 0 001-3.89c.14-1-.74-3.5-3.91-5-1.59-.72-3.59.16-5.66 1.31-1.68 1-3.42 2-4.67 2.68s-2.3 3.34-2.82 6.58c-.12.71-.2 1.44-.26 2.18a25.65 25.65 0 00.82 9.87z" fill="#b6b044"/><path d="M42.05 76.5c.9 2.72 3.21 1.39 4.52-.45s3.56-3 4.45-4.15c1.18-1.55 4.5-5.52 6.32-9.17a11.89 11.89 0 001-3.88c.14-1-.74-3.5-3.88-5-1.63-.76-3.61.07-5.63 1.29-1.65 1-3.36 2-4.59 2.75s-2.24 3.4-2.77 6.61c-.11.71-.2 1.44-.26 2.17a25.63 25.63 0 00.84 9.83z" fill="#b7b044"/><path d="M42.09 76.55c.87 2.64 3.15 1.33 4.44-.49s3.51-3 4.37-4.12a67.76 67.76 0 006.27-9.21 11.84 11.84 0 001-3.87c.14-1-.74-3.49-3.86-5-1.61-.77-3.58.06-5.58 1.31L44.23 58c-1.23.74-2.23 3.4-2.73 6.59-.11.71-.19 1.43-.25 2.17a25.64 25.64 0 00.84 9.79z" fill="#b8b145"/><path d="M42.13 76.6c.85 2.56 3.09 1.26 4.36-.53S50 73.14 50.79 72A73.61 73.61 0 0057 62.73a11.65 11.65 0 001-3.86c.13-1-.74-3.48-3.84-5-1.61-.78-3.55.05-5.53 1.32-1.61 1-3.26 2.09-4.46 2.89s-2.19 3.43-2.68 6.6c-.11.71-.19 1.43-.25 2.16a25.69 25.69 0 00.89 9.76z" fill="#b9b245"/><path d="M42.18 76.65c.82 2.48 3 1.2 4.28-.58s3.4-2.9 4.21-4a82.79 82.79 0 006.15-9.3 11.55 11.55 0 001.06-3.84c.14-1.05-.74-3.48-3.82-5-1.6-.79-3.52 0-5.48 1.33-1.58 1-3.21 2.13-4.38 3s-2.2 3.37-2.64 6.51c-.11.71-.19 1.43-.25 2.15a25.72 25.72 0 00.87 9.73z" fill="#bab245"/><path d="M42.22 76.69c.8 2.41 3 1.14 4.2-.61s3.34-2.87 4.13-4a91.08 91.08 0 006.09-9.33 10.92 10.92 0 001.08-3.83c.14-1.07-.73-3.47-3.8-5-1.58-.8-3.49 0-5.43 1.34-1.55 1-3.15 2.16-4.31 3s-2.12 3.49-2.59 6.61c-.11.7-.18 1.42-.24 2.15a25.47 25.47 0 00.87 9.67z" fill="#bcb346"/><path d="M42.26 76.74c.77 2.33 2.88 1.08 4.12-.65s3.29-2.85 4-4a102.75 102.75 0 006-9.37 10.87 10.87 0 001.09-3.83c.14-1.07-.73-3.45-3.77-5-1.58-.81-3.47 0-5.38 1.35-1.53 1.05-3.11 2.2-4.25 3.11s-1.99 3.5-2.45 6.65c-.11.7-.18 1.42-.24 2.14a25.73 25.73 0 00.88 9.6z" fill="#bdb446"/><path d="M42.3 76.79c.75 2.25 2.82 1 4-.7s3.24-2.82 4-4c1.06-1.64 4.12-5.91 6-9.41a10.91 10.91 0 001.11-3.82c.14-1.09-.73-3.45-3.76-5-1.57-.82-3.43 0-5.33 1.36-1.5 1.06-3 2.23-4.17 3.19S42.1 62 41.65 65c-.11.7-.18 1.41-.23 2.13a25.78 25.78 0 00.88 9.66z" fill="#beb447"/><path d="M42.34 76.84c.73 2.17 2.75 1 4-.74s3.17-2.79 3.89-3.93c1-1.66 4.07-6 5.92-9.45a10.54 10.54 0 001.13-3.81c.14-1.11-.73-3.44-3.74-5-1.55-.83-3.4 0-5.28 1.38a52.06 52.06 0 00-4.1 3.25c-1.08 1-2 3.58-2.45 6.63-.1.7-.18 1.41-.23 2.13a25.78 25.78 0 00.86 9.54z" fill="#bfb547"/><path d="M42.39 76.88c.69 2.09 2.68.89 3.88-.77s3.12-2.77 3.81-3.9c1-1.67 4-6 5.87-9.49a10.32 10.32 0 001.14-3.8c.14-1.13-.73-3.43-3.71-5.05-1.55-.84-3.38 0-5.23 1.39a46.07 46.07 0 00-4 3.33c-1.06 1-2 3.61-2.4 6.63-.1.7-.17 1.41-.23 2.12a25.76 25.76 0 00.87 9.54z" fill="#c0b547"/><path d="M42.43 76.93c.67 2 2.61.83 3.8-.81s3.07-2.75 3.77-3.87c1-1.69 3.95-6.1 5.81-9.53a10 10 0 001.16-3.79c.15-1.14-.72-3.43-3.69-5.06-1.54-.85-3.35 0-5.18 1.4a40 40 0 00-4 3.4c-1 1-1.94 3.64-2.37 6.64-.09.69-.16 1.4-.21 2.11a25.6 25.6 0 00.91 9.51z" fill="#c1b648"/><path d="M42.47 77c.65 1.93 2.55.76 3.72-.86s3-2.72 3.65-3.84c1-1.7 3.89-6.15 5.76-9.56a10.21 10.21 0 001.18-3.78c.14-1.16-.73-3.42-3.67-5.07-1.53-.85-3.32 0-5.14 1.41a37.54 37.54 0 00-3.89 3.47c-1 1.1-1.9 3.67-2.31 6.65-.1.69-.17 1.4-.22 2.11a25.85 25.85 0 00.92 9.47z" fill="#c2b748"/><path d="M42.51 77c.62 1.85 2.49.7 3.65-.9s3-2.7 3.57-3.81c1-1.72 3.82-6.22 5.7-9.6a10 10 0 001.19-3.78c.14-1.17-.72-3.4-3.65-5.07-1.52-.86-3.29 0-5.08 1.42a32.2 32.2 0 00-3.82 3.55c-1 1.13-1.87 3.7-2.28 6.65-.09.69-.16 1.39-.2 2.1a25.68 25.68 0 00.92 9.44z" fill="#c3b748"/><path d="M42.56 77.07c.59 1.78 2.41.64 3.56-.93s2.89-2.67 3.49-3.78c.94-1.73 3.76-6.28 5.64-9.64A9.53 9.53 0 0056.46 59c.15-1.19-.72-3.4-3.62-5.08-1.52-.87-3.27 0-5 1.43a30.87 30.87 0 00-3.75 3.62c-1 1.17-1.83 3.73-2.23 6.66-.09.69-.15 1.39-.2 2.09a25.45 25.45 0 00.9 9.35z" fill="#c5b849"/><path d="M42.6 77.12c.57 1.7 2.35.58 3.48-1s2.84-2.64 3.41-3.74c.92-1.75 3.7-6.35 5.59-9.68a9.74 9.74 0 001.23-3.7c.14-1.21-.73-3.39-3.61-5.09-1.51-.88-3.24 0-5 1.44A29.18 29.18 0 0044 59c-1 1.21-1.79 3.75-2.18 6.66-.09.69-.15 1.38-.2 2.08a25.73 25.73 0 00.98 9.38z" fill="#c6b949"/><path d="M42.64 77.17c.54 1.62 2.28.51 3.41-1s2.77-2.62 3.32-3.71c.9-1.77 3.65-6.41 5.54-9.72A9.6 9.6 0 0056.15 59c.14-1.22-.72-3.38-3.59-5.1-1.49-.89-3.21 0-4.93 1.46A26.54 26.54 0 0044 59.09a15.58 15.58 0 00-2.14 6.67c-.09.68-.15 1.38-.19 2.08a25.54 25.54 0 00.97 9.33z" fill="#c7b94a"/><path d="M42.68 77.21c.52 1.55 2.22.46 3.33-1s2.72-2.6 3.25-3.68c.87-1.79 3.58-6.48 5.47-9.76A8.09 8.09 0 0056 59c0-1.25-.72-3.38-3.56-5.11-1.49-.9-3.19-.06-4.89 1.47A24.94 24.94 0 0044 59.17a16.14 16.14 0 00-2.09 6.68c-.09.68-.14 1.38-.19 2.07a25.5 25.5 0 00.96 9.29z" fill="#c8ba4a"/><path d="M42.73 77.26c.49 1.47 2.14.39 3.24-1.09s2.66-2.58 3.17-3.65c.85-1.81 3.52-6.54 5.42-9.8A8 8 0 0055.83 59c.05-1.26-.71-3.37-3.54-5.12-1.47-.91-3.15-.07-4.84 1.48a24.61 24.61 0 00-3.45 3.9 16.74 16.74 0 00-2 6.68q-.12 1-.18 2.07a25.32 25.32 0 00.91 9.25z" fill="#c9bb4a"/><path d="M42.77 77.31c.46 1.39 2.08.33 3.17-1.14s2.59-2.54 3.08-3.62c.82-1.81 3.46-6.6 5.36-9.83a8 8 0 001.3-3.72c0-1.27-.72-3.35-3.52-5.12-1.47-.92-3.13-.08-4.79 1.49a23.33 23.33 0 00-3.4 4A17.18 17.18 0 0042 66c-.08.68-.14 1.37-.18 2.06a25.37 25.37 0 00.95 9.25z" fill="#cabb4b"/><path d="M42.81 77.36c.44 1.31 2 .26 3.09-1.18s2.54-2.52 3-3.59c.8-1.83 3.4-6.66 5.31-9.87A8 8 0 0055.52 59c.06-1.29-.71-3.35-3.5-5.13-1.46-.93-3.1-.09-4.74 1.5A23.23 23.23 0 0044 59.43a17.72 17.72 0 00-2 6.69c-.08.68-.14 1.36-.17 2a25.45 25.45 0 00.98 9.24z" fill="#cbbc4b"/><path d="M42.85 77.4c.42 1.24 1.95.21 3-1.21s2.48-2.5 2.93-3.56A107.61 107.61 0 0154 62.72 7.94 7.94 0 0055.36 59c.06-1.31-.71-3.34-3.48-5.14-1.44-.94-3.07-.1-4.69 1.51a22.31 22.31 0 00-3.26 4.13 18.74 18.74 0 00-1.9 6.7c-.08.67-.13 1.36-.17 2a25.44 25.44 0 00.99 9.2z" fill="#cdbd4c"/><path d="M42.9 77.45c.38 1.16 1.87.14 2.93-1.26s2.42-2.47 2.84-3.52a94.12 94.12 0 015.19-10A7.83 7.83 0 0055.2 59c.07-1.33-.7-3.33-3.45-5.15-1.44-.95-3-.11-4.64 1.53a21.16 21.16 0 00-3.19 4.19 19.26 19.26 0 00-1.86 6.71c-.08.67-.13 1.36-.17 2a25.46 25.46 0 001.01 9.17z" fill="#cebe4c"/><path d="M42.94 77.5c.36 1.08 1.81.08 2.85-1.3s2.36-2.44 2.76-3.49a83.26 83.26 0 015.14-10A8 8 0 0055.05 59c.06-1.34-.71-3.33-3.44-5.16-1.43-1-3-.12-4.59 1.54a21 21 0 00-3.12 4.27 20.15 20.15 0 00-1.81 6.71c-.08.67-.13 1.35-.16 2a25.32 25.32 0 001.01 9.14z" fill="#cfbe4d"/><path d="M43 77.54c.34 1 1.75 0 2.77-1.33s2.3-2.42 2.68-3.46a76.35 76.35 0 015.08-10A7.8 7.8 0 0054.89 59c.07-1.36-.71-3.32-3.41-5.17-1.42-1-3-.13-4.54 1.55a20.4 20.4 0 00-3 4.34 20.54 20.54 0 00-1.77 6.72c-.08.67-.12 1.35-.16 2a25.26 25.26 0 00.99 9.1z" fill="#d0bf4d"/><path d="M43 77.59c.31.93 1.68 0 2.69-1.37s2.24-2.4 2.6-3.44a70.72 70.72 0 015-10.06A7.72 7.72 0 0054.73 59c.08-1.37-.7-3.3-3.39-5.17-1.41-1-3-.14-4.49 1.56a19.78 19.78 0 00-3 4.42 21.33 21.33 0 00-1.72 6.72c-.07.67-.12 1.34-.15 2A25.31 25.31 0 0043 77.59z" fill="#d1c04d"/><path d="M43.07 77.64c.28.85 1.61-.11 2.61-1.42s2.18-2.37 2.52-3.4a62.7 62.7 0 015-10.1 7.83 7.83 0 001.41-3.67c.07-1.38-.71-3.3-3.38-5.18-1.4-1-2.94-.15-4.44 1.57a20.31 20.31 0 00-2.91 4.49 22.32 22.32 0 00-1.67 6.73c-.07.66-.12 1.34-.15 2a25.16 25.16 0 001.01 8.98z" fill="#d2c04e"/><path d="M43.11 77.69c.26.77 1.54-.18 2.53-1.46s2.12-2.34 2.44-3.37A58.84 58.84 0 0153 62.72a7.77 7.77 0 001.43-3.66c.08-1.4-.7-3.29-3.35-5.19-1.39-1-2.92-.16-4.39 1.58A19.31 19.31 0 0043.84 60a23.35 23.35 0 00-1.63 6.74c-.07.66-.12 1.33-.15 2a25.68 25.68 0 001.05 8.95z" fill="#d3c14e"/><path d="M43.15 77.73c.23.7 1.48-.23 2.45-1.49s2.06-2.32 2.4-3.34a54.32 54.32 0 014.86-10.18 7.69 7.69 0 001.44-3.65c.08-1.42-.7-3.29-3.33-5.2-1.38-1-2.9-.17-4.34 1.59a19.79 19.79 0 00-2.77 4.64 24.59 24.59 0 00-1.58 6.74c-.07.66-.11 1.33-.14 2a25.42 25.42 0 001.01 8.89z" fill="#d5c24f"/><path d="M43.19 77.78c.21.62 1.41-.3 2.37-1.54s2-2.29 2.28-3.3a50.92 50.92 0 014.8-10.22 7.6 7.6 0 001.46-3.64c.09-1.44-.69-3.29-3.3-5.21-1.38-1-2.88-.18-4.3 1.61a19.66 19.66 0 00-2.7 4.7 25.81 25.81 0 00-1.53 6.75c-.07.66-.11 1.32-.14 2a25.75 25.75 0 001.06 8.85z" fill="#d6c24f"/><path d="M43.23 77.83c.19.54 1.35-.36 2.3-1.58a12 12 0 002.2-3.25 47.48 47.48 0 014.74-10.26A7.64 7.64 0 0054 59.09c.09-1.45-.7-3.28-3.29-5.22-1.36-1-2.85-.19-4.24 1.62a19.09 19.09 0 00-2.63 4.78A26.39 26.39 0 0042.3 67c-.07.66-.11 1.32-.14 2a25.82 25.82 0 001.07 8.83z" fill="#d7c350"/><path d="M43.28 77.88c.15.46 1.27-.43 2.21-1.62A10.93 10.93 0 0047.61 73a44.59 44.59 0 014.69-10.3 7.67 7.67 0 001.49-3.63c.09-1.46-.69-3.26-3.27-5.22-1.35-1-2.82-.2-4.19 1.63a19.51 19.51 0 00-2.56 4.85 27.84 27.84 0 00-1.44 6.76c-.07.66-.11 1.32-.13 2a25.4 25.4 0 001.08 8.79z" fill="#d8c450"/><path d="M43.32 77.92c.13.39 1.21-.48 2.13-1.65a10 10 0 002-3.22 42.32 42.32 0 014.63-10.33 7.62 7.62 0 001.51-3.62c.1-1.48-.69-3.25-3.24-5.23-1.35-1-2.8-.21-4.15 1.64a20.06 20.06 0 00-2.49 4.93 29 29 0 00-1.39 6.76c-.06.65-.1 1.31-.13 2a25.62 25.62 0 001.13 8.72z" fill="#dac550"/><path d="M43.36 78c.11.31 1.14-.55 2.06-1.7a9.16 9.16 0 001.95-3.18A40.42 40.42 0 0152 62.72a7.51 7.51 0 001.52-3.61c.11-1.49-.68-3.25-3.22-5.24-1.33-1-2.78-.22-4.09 1.65a19.57 19.57 0 00-2.42 5 30.49 30.49 0 00-1.35 6.77c-.06.65-.1 1.31-.12 2A25.44 25.44 0 0043.36 78z" fill="#dbc551"/><path d="M43.41 78c.07.23 1.07-.61 2-1.74a8.46 8.46 0 001.87-3.15A38.63 38.63 0 0151.8 62.7a7.58 7.58 0 001.55-3.6c.11-1.51-.69-3.24-3.2-5.25-1.33-1.06-2.76-.23-4 1.67a20.07 20.07 0 00-2.35 5.06 32.13 32.13 0 00-1.3 6.78c-.06.65-.1 1.31-.12 2A25.51 25.51 0 0043.41 78z" fill="#dcc651"/><path d="M43.45 78.06c0 .16 1-.67 1.89-1.77a8 8 0 001.8-3.12 36.45 36.45 0 014.46-10.45 7.61 7.61 0 001.56-3.59c.11-1.53-.69-3.23-3.18-5.26-1.32-1.07-2.73-.24-4 1.68a19.93 19.93 0 00-2.27 5.14 32.83 32.83 0 00-1.26 6.78c-.06.65-.1 1.3-.11 2a25.24 25.24 0 001.11 8.59z" fill="#ddc752"/><path d="M43.49 78.11a8 8 0 001.81-1.82 7.43 7.43 0 001.7-3.08 35.2 35.2 0 014.41-10.49A7.5 7.5 0 0053 59.13c.12-1.54-.68-3.21-3.16-5.26-1.3-1.08-2.7-.25-3.94 1.69a20.43 20.43 0 00-2.21 5.21 34.75 34.75 0 00-1.21 6.79c-.06.65-.09 1.3-.11 1.94a25.59 25.59 0 001.12 8.61z" fill="#dfc852"/><path class="cls-122" d="M43.53 78.16s3.09-2.81 3.37-4.91a33.57 33.57 0 014.35-10.53c2-2.81 2.81-5.2-1.54-8.85-2.18-1.82-4.6 1.72-6 7a37.57 37.57 0 00-1.27 8.73 24.89 24.89 0 001.09 8.56z"/><path d="M38.52 69.43c.59.91 1.16 1.24 1.65 1.28a1.68 1.68 0 001.21-.48c-.17-1.48-.39-3-.63-4.49-.21-1.32-.44-2.64-.69-3.93s-.51-2.57-.78-3.8c-1.3-.14-1.86 2.14-1.91 4.75a21.37 21.37 0 00.27 3.88 7.81 7.81 0 00.88 2.79z" fill="#cbbcc2"/><path class="cls-124" d="M33.73 61.88a9.22 9.22 0 001.83 5.53 6 6 0 001 1.07 9.18 9.18 0 00.13 2.63 3.57 3.57 0 002.11 2.52 2.76 2.76 0 001 .14 2.84 2.84 0 001-.15 20.41 20.41 0 00.5-4.73c0-.8-.16-1.68-.28-2.58-.13 1.31-1 .54-1.32.17-.7-.89-1.38-5.48-.29-5.48.16-.11.71.72.89 1.15a17.63 17.63 0 00-.49-1.88 4.3 4.3 0 01-.55-2.42 7.59 7.59 0 00-3-3.27c-1.69.42-2.62 3.8-2.53 7.3z"/><path d="M33.14 61.74a9 9 0 002.07 5.79 6.43 6.43 0 001.12 1 9.31 9.31 0 00.05 2.79 3.76 3.76 0 002.17 2.7 3.14 3.14 0 001.05.19 3 3 0 001.07-.12 19.68 19.68 0 00.63-5c0-.85-.15-1.78-.28-2.74-.14 1.49-1.13.7-1.47.32a1 1 0 01-.12-.16c-.7-1.13-1.36-5.61-.35-5.9h.15c.19-.08.78.82 1 1.32q-.06-.33-.12-.63c-.13-.51-.25-1-.37-1.31l-.15-.41a3.67 3.67 0 01-.48-2.33c-.93-1.53-2.24-2.94-3.37-3.19-1.74.47-2.74 4.04-2.6 7.68z" fill="#d0c3c9"/><path d="M32.55 61.6a8.92 8.92 0 002.31 6 6.6 6.6 0 001.23 1 10.06 10.06 0 000 3 3.94 3.94 0 002.24 2.89 3.65 3.65 0 001.1.23 3.45 3.45 0 001.14-.08 19.3 19.3 0 00.77-5.28c0-.9-.15-1.88-.29-2.9-.15 1.67-1.22.87-1.62.46a.93.93 0 01-.16-.18c-.79-1.17-1.55-6.31-.34-6.51a.36.36 0 01.15 0c.21-.06.84.91 1.1 1.48a4 4 0 00-.08-.5 14.46 14.46 0 00-.41-1.49 4.7 4.7 0 00-.17-.45 4.12 4.12 0 01-.52-2.63c-1-1.55-2.48-3-3.71-3.1-1.83.54-2.87 4.27-2.74 8.06z" fill="#d1c4ca"/><path d="M32 61.46a8.93 8.93 0 002.55 6.29 6.21 6.21 0 001.35 1 9.8 9.8 0 00-.1 3.11 4.11 4.11 0 002.3 3.07 3.79 3.79 0 001.16.28 3.41 3.41 0 001.21 0 19.32 19.32 0 00.91-5.56c-.05-.93-.16-2-.3-3-.16 1.85-1.31 1-1.77.61a1.19 1.19 0 01-.19-.2c-.9-1.22-1.74-7-.35-7.12a.29.29 0 01.16 0c.23 0 .9 1 1.19 1.64a1.62 1.62 0 000-.38c-.15-.64-.31-1.22-.46-1.67l-.18-.49c-.41-1-.91-1.89-.62-2.9-1.11-1.59-2.7-3-4-3-1.96.49-3.05 4.39-2.86 8.32z" fill="#d2c5ca"/><path d="M31.37 61.31a8.92 8.92 0 002.79 6.55 6.44 6.44 0 001.46 1 10.44 10.44 0 00-.17 3.27 4.31 4.31 0 002.36 3.26 4.14 4.14 0 001.22.32 3.87 3.87 0 001.28 0 18.76 18.76 0 001-5.83c0-1-.15-2.08-.3-3.21-.17 2-1.4 1.22-1.92.76a1.63 1.63 0 01-.23-.22c-1-1.28-1.93-7.72-.35-7.74h.17c.25 0 1 1.09 1.29 1.81A.58.58 0 0040 61a18.39 18.39 0 00-.51-1.84c-.06-.19-.13-.37-.2-.54-.45-1.14-1-2.08-.68-3.19-1.21-1.61-2.94-3.09-4.4-2.93-1.86.67-3.01 4.75-2.84 8.81z" fill="#d3c6cb"/><path d="M30.78 61.16c.14 2.82 1.16 5.39 3 6.8a6.55 6.55 0 001.58 1 10.78 10.78 0 00-.25 3.43 4.48 4.48 0 002.43 3.44 5 5 0 002.62.39 19 19 0 001.18-6.11c0-1-.16-2.18-.31-3.37-.18 2.21-1.49 1.39-2.07.91a1.54 1.54 0 01-.26-.24C37.66 66 36.61 59 38.37 59a.48.48 0 01.17 0c.28 0 1 1.19 1.4 2a.2.2 0 00.08-.13 20.76 20.76 0 00-.56-2c-.07-.21-.14-.4-.21-.58-.49-1.29-1.12-2.29-.75-3.5-1.3-1.64-3.17-3.14-4.75-2.85-1.96.77-3.15 5.06-2.97 9.22z" fill="#d3c7cc"/><path d="M30.19 61c.15 3 1.24 5.63 3.28 7.06a6.91 6.91 0 001.68.94 11 11 0 00-.32 3.58 4.67 4.67 0 002.49 3.63 4.92 4.92 0 001.33.42 4.56 4.56 0 001.41.05 18.36 18.36 0 001.32-6.39c0-1.07-.15-2.27-.31-3.52-.19 2.39-1.59 1.56-2.22 1a2.81 2.81 0 01-.3-.26c-1.16-1.38-2.31-9.12-.35-9a.33.33 0 01.17 0c.3 0 1.09 1.27 1.5 2.14H40c-.2-.84-.41-1.61-.61-2.2-.07-.23-.15-.44-.22-.63-.54-1.35-1.23-2.45-.82-3.75-1.35-1.59-3.41-3.07-5.09-2.68-2.03.85-3.26 5.27-3.07 9.61z" fill="#d4c8cd"/><path d="M29.61 60.84c.16 3.09 1.32 5.87 3.51 7.31a6.8 6.8 0 001.8.92 11.35 11.35 0 00-.4 3.74 4.87 4.87 0 002.55 3.82 5.82 5.82 0 001.39.46 4.51 4.51 0 001.48.08 18.55 18.55 0 001.46-6.66c0-1.11-.15-2.37-.32-3.68-.2 2.57-1.68 1.74-2.37 1.2a2.51 2.51 0 01-.33-.28c-1.25-1.43-2.5-9.82-.36-9.57a.38.38 0 01.18 0 6.52 6.52 0 011.6 2.31l.18.12c-.22-.91-.44-1.74-.65-2.38-.08-.25-.17-.47-.25-.68-.58-1.46-1.33-2.63-.89-4-1.48-1.71-3.63-3.24-5.43-2.69-2.08.91-3.39 5.51-3.15 9.98z" fill="#d5c9ce"/><path d="M29 60.68c.17 3.22 1.4 6.12 3.75 7.56a7.12 7.12 0 001.91.9 11.94 11.94 0 00-.47 3.9 5 5 0 002.62 4 5.44 5.44 0 001.44.5 4.76 4.76 0 001.55.12 19 19 0 001.6-6.94c0-1.16-.16-2.47-.33-3.84-.22 2.76-1.78 1.91-2.52 1.35a2 2 0 01-.37-.31c-1.34-1.48-2.69-10.51-.36-10.17a.32.32 0 01.19 0 7 7 0 011.7 2.47 2 2 0 01.22.24c-.22-1-.46-1.87-.69-2.56-.09-.26-.18-.5-.26-.72-.62-1.56-1.44-2.81-1-4.31-1.58-1.74-3.87-3.29-5.78-2.61-2.08 1.05-3.44 5.81-3.2 10.42z" fill="#d6cacf"/><path d="M28.43 60.52c.19 3.35 1.48 6.36 4 7.82a7.56 7.56 0 002 .88 11.62 11.62 0 00-.55 4 5.23 5.23 0 002.68 4.2 6.36 6.36 0 001.5.55 5.31 5.31 0 001.62.15A19 19 0 0041.43 71a38.15 38.15 0 00-.33-4c-.23 2.94-1.87 2.09-2.68 1.51a2.79 2.79 0 01-.39-.34c-1.43-1.53-2.88-11.21-.37-10.78a.41.41 0 01.19 0 7.62 7.62 0 011.8 2.61 1.79 1.79 0 01.28.37c-.24-1-.49-2-.74-2.74-.09-.28-.19-.54-.28-.77-.66-1.66-1.54-3-1-4.59-1.67-1.77-4.1-3.34-6.13-2.53-2.21 1.1-3.63 6.03-3.35 10.78z" fill="#d6cbd0"/><path d="M27.84 60.36c.2 3.49 1.56 6.61 4.23 8.07a7.8 7.8 0 002.14.86 12.14 12.14 0 00-.62 4.21 5.41 5.41 0 002.74 4.38 6.4 6.4 0 001.57.6 5.47 5.47 0 001.68.18 19.09 19.09 0 001.87-7.49A41.46 41.46 0 0041.1 67c-.23 3.12-2 2.26-2.82 1.65a4.85 4.85 0 01-.43-.35c-1.51-1.6-3.07-11.93-.36-11.4a.34.34 0 01.19 0 8.35 8.35 0 011.9 2.8 2.66 2.66 0 01.33.5 31.65 31.65 0 00-.79-2.92c-.1-.3-.2-.57-.29-.81-.71-1.78-1.66-3.19-1.1-4.88-1.76-1.8-4.32-3.39-6.46-2.45-2.27 1.23-3.72 6.33-3.43 11.22z" fill="#d7ccd1"/><path d="M27.25 60.2c.22 3.62 1.64 6.86 4.47 8.33a7.92 7.92 0 002.26.83 12.26 12.26 0 00-.7 4.37 5.57 5.57 0 002.81 4.57 6.16 6.16 0 001.62.64 5.74 5.74 0 001.75.22c.71-1.69 2-4.6 2-7.77a39.11 39.11 0 00-.35-4.31c-.24 3.3-2 2.44-3 1.8a4.08 4.08 0 01-.46-.37c-1.61-1.65-3.26-12.63-.37-12a.36.36 0 01.2 0 9.29 9.29 0 012 3 4.75 4.75 0 01.38.62c-.27-1.19-.56-2.26-.84-3.1-.1-.31-.2-.6-.31-.85C38 54.29 37 52.8 37.58 51c-1.85-1.83-4.56-3.43-6.81-2.36-2.31 1.26-3.83 6.53-3.52 11.56z" fill="#d8cdd1"/><path d="M26.66 60.05c.24 3.75 1.72 7.1 4.72 8.57a7.76 7.76 0 002.36.82A12.72 12.72 0 0033 74a5.81 5.81 0 002.87 4.76 7.47 7.47 0 001.68.68 6 6 0 001.82.25c.76-1.73 2.18-4.75 2.14-8a39.91 39.91 0 00-.36-4.47c-.28 3.41-2.15 2.54-3.15 1.87a3.23 3.23 0 01-.5-.39c-1.69-1.7-3.45-13.32-.37-12.62a.59.59 0 01.21 0 10.15 10.15 0 012.1 3.14 5.09 5.09 0 01.43.74c-.29-1.25-.59-2.39-.89-3.28-.1-.33-.21-.63-.32-.9-.79-2-1.87-3.55-1.23-5.44-2-1.86-4.79-3.49-7.16-2.28s-3.94 6.82-3.61 11.99z" fill="#d9ced2"/><path d="M26.07 59.94c.25 3.88 1.81 7.35 5 8.83a8.7 8.7 0 002.48.8 12.93 12.93 0 00-.85 4.68 6 6 0 002.93 5 7.56 7.56 0 001.74.72 6.55 6.55 0 001.89.29c.8-1.77 2.3-4.91 2.28-8.32a43 43 0 00-.37-4.63c-.26 3.66-2.24 2.79-3.27 2.09a3.79 3.79 0 01-.53-.41c-1.79-1.75-3.64-14-.37-13.23a.53.53 0 01.2 0 10.75 10.75 0 012.21 3.3 5.46 5.46 0 01.47.87c-.3-1.33-.62-2.52-.93-3.46-.11-.34-.22-.66-.34-.94-.83-2.09-2-3.74-1.3-5.73-2-1.89-5-3.54-7.5-2.2s-4.09 7.03-3.74 12.34z" fill="#dacfd3"/><path d="M25.48 59.83c.27 4 1.89 7.6 5.2 9.09a9 9 0 002.59.77 13.22 13.22 0 00-.92 4.85 6.16 6.16 0 003 5.13 8.11 8.11 0 001.79.77 6.45 6.45 0 002 .31c.85-1.81 2.43-5 2.41-8.59a40.92 40.92 0 00-.37-4.78c-.27 3.84-2.33 3-3.42 2.24a5.49 5.49 0 01-.57-.44c-1.87-1.81-3.82-14.72-.37-13.84a.63.63 0 01.21 0 11.46 11.46 0 012.3 3.47 6.15 6.15 0 01.53 1c-.31-1.39-.65-2.65-1-3.63q-.18-.55-.36-1c-.88-2.2-2.08-3.92-1.37-6-2.12-1.93-5.25-3.59-7.84-2.12s-4.18 7.32-3.81 12.77z" fill="#dad0d4"/><path d="M24.89 59.72c.29 4.15 2 7.85 5.44 9.34a8.8 8.8 0 002.71.75 13.77 13.77 0 00-1 5 6.32 6.32 0 003.06 5.31A8 8 0 0037 81a6.76 6.76 0 002 .35c.9-1.85 2.56-5.21 2.55-8.87a41.93 41.93 0 00-.38-4.94c-.28 4-2.43 3.14-3.57 2.39a5.06 5.06 0 01-.61-.46C35 67.56 33 54 36.6 55a.49.49 0 01.22.06 12 12 0 012.4 3.64 8 8 0 01.58 1.11c-.33-1.46-.68-2.78-1-3.82a10.7 10.7 0 00-.38-1c-.91-2.3-2.18-4.11-1.43-6.29-2.22-2-5.49-3.64-8.19-2s-4.3 7.43-3.91 13.02z" fill="#dbd1d5"/><path d="M24.3 59.61c.3 4.28 2.05 8.1 5.68 9.6a9.81 9.81 0 002.82.73 14.14 14.14 0 00-1.07 5.16 6.52 6.52 0 003.12 5.5 8.15 8.15 0 001.91.86 7 7 0 002.1.39c.94-1.89 2.69-5.36 2.68-9.14a42.2 42.2 0 00-.38-5.1c-.3 4.2-2.52 3.31-3.72 2.53a5 5 0 01-.64-.48c-2-1.91-4.2-16.12-.38-15.06a.51.51 0 01.22.07c.55.3 1.73 2.19 2.51 3.8a9.09 9.09 0 01.63 1.24c-.34-1.53-.72-2.92-1.07-4q-.2-.6-.39-1.08c-1-2.4-2.3-4.29-1.51-6.57-2.31-2-5.71-3.69-8.53-2-2.6 1.7-4.38 7.82-3.98 13.55z" fill="#dcd2d6"/><path d="M23.71 59.51c.33 4.4 2.13 8.34 5.92 9.84a9.83 9.83 0 002.94.71 14.25 14.25 0 00-1.15 5.32 6.71 6.71 0 003.19 5.69 8.86 8.86 0 002 .91 7.64 7.64 0 002.16.42c1-1.94 2.83-5.51 2.83-9.42a45.17 45.17 0 00-.39-5.26c-.31 4.38-2.62 3.49-3.87 2.68a4.29 4.29 0 01-.68-.5c-2.12-2-4.39-16.83-.37-15.67a.59.59 0 01.22.08c.57.33 1.79 2.28 2.61 4a10.1 10.1 0 01.68 1.36c-.36-1.59-.75-3-1.12-4.17-.14-.41-.27-.79-.41-1.12-1-2.52-2.4-4.48-1.57-6.86-2.4-2-5.95-3.74-8.87-1.87-2.71 1.69-4.53 7.98-4.12 13.86z" fill="#ddd3d7"/><path d="M23.12 59.4c.34 4.54 2.21 8.59 6.16 10.1a10.32 10.32 0 003 .69 14.66 14.66 0 00-1.22 5.48 6.89 6.89 0 003.25 5.87 9.2 9.2 0 002 .95 7.91 7.91 0 002.23.46c1-2 3-5.67 3-9.7a48.44 48.44 0 00-.4-5.42c-.32 4.57-2.71 3.67-4 2.84a6.53 6.53 0 01-.71-.53c-2.22-2-4.58-17.52-.38-16.28a.63.63 0 01.23.08c.59.36 1.85 2.38 2.71 4.13a12.57 12.57 0 01.73 1.49c-.38-1.66-.78-3.18-1.17-4.35-.14-.43-.28-.83-.42-1.17-1-2.62-2.51-4.66-1.64-7.14-2.49-2-6.18-3.79-9.22-1.79-2.7 1.81-4.58 8.28-4.15 14.29z" fill="#ded4d8"/><path d="M22.53 59.29c.36 4.67 2.29 8.84 6.41 10.35a10.54 10.54 0 003.16.67A15 15 0 0030.8 76a7.07 7.07 0 003.31 6 9.77 9.77 0 002.08 1 7.8 7.8 0 002.3.49c1.09-2 3.09-5.81 3.1-10a46.56 46.56 0 00-.4-5.57c-.33 4.74-2.81 3.84-4.17 3a5.43 5.43 0 01-.75-.55C34 68.3 31.5 52.15 35.89 53.49a.72.72 0 01.24.09c.61.42 1.87 2.42 2.81 4.29a12.66 12.66 0 01.77 1.61A46.14 46.14 0 0038.5 55c-.14-.44-.29-.85-.43-1.21C37 51 35.45 48.9 36.35 46.32c-2.58-2.08-6.41-3.84-9.56-1.71-2.79 1.89-4.71 8.53-4.26 14.68z" fill="#ded5d9"/><path d="M21.94 59.18c.38 4.8 2.37 9.09 6.65 10.61a10.67 10.67 0 003.27.64 15.23 15.23 0 00-1.37 5.8 7.28 7.28 0 003.38 6.25 10.3 10.3 0 002.13 1 8.43 8.43 0 002.37.52c1.14-2.06 3.22-6 3.24-10.25a49.41 49.41 0 00-.41-5.73c-.34 4.93-2.9 4-4.32 3.13a5.29 5.29 0 01-.78-.57c-2.39-2.13-5-18.93-.38-17.5a.68.68 0 01.23.09c.64.41 2 2.56 2.92 4.47a13.78 13.78 0 01.82 1.73c-.4-1.8-.84-3.44-1.26-4.71-.15-.46-.3-.89-.45-1.26-1.13-2.83-2.72-5-1.78-7.71-2.68-2.1-6.64-3.88-9.91-1.62-2.83 2.01-4.81 8.82-4.35 15.11z" fill="#dfd7da"/><path d="M21.35 59.07c.39 4.94 2.45 9.34 6.89 10.86a11.11 11.11 0 003.39.63 15.49 15.49 0 00-1.45 6A7.45 7.45 0 0033.62 83a10.73 10.73 0 002.2 1 8.56 8.56 0 002.43.56c1.19-2.1 3.35-6.12 3.37-10.53a48 48 0 00-.41-5.89c-.35 5.11-3 4.2-4.47 3.28a6.11 6.11 0 01-.82-.59c-2.48-2.18-5.15-19.63-.38-18.11a1.12 1.12 0 01.24.1c.66.44 2 2.65 3 4.63a15.08 15.08 0 01.88 1.86c-.42-1.87-.87-3.57-1.3-4.89-.16-.48-.32-.92-.47-1.3-1.18-2.94-2.83-5.22-1.85-8-2.76-2.12-6.86-3.9-10.24-1.5-2.9 2.04-4.93 9.02-4.45 15.45z" fill="#e0d8db"/><path d="M20.77 59c.4 5.07 2.52 9.59 7.12 11.12a11.8 11.8 0 003.5.6 15.94 15.94 0 00-1.52 6.12 7.64 7.64 0 003.5 6.62 11.08 11.08 0 002.26 1.13 9.21 9.21 0 002.5.59c1.23-2.15 3.48-6.27 3.51-10.8a48.64 48.64 0 00-.42-6c-.36 5.29-3.09 4.37-4.63 3.42a6.44 6.44 0 01-.84-.6c-2.57-2.25-5.34-20.34-.39-18.73a.87.87 0 01.25.11c.68.46 2.11 2.74 3.11 4.79a18.63 18.63 0 01.93 2c-.43-1.93-.9-3.69-1.35-5.07-.17-.49-.33-.95-.49-1.34-1.21-3-2.93-5.4-1.91-8.27-2.86-2.17-7.11-4-10.6-1.46-2.96 2.01-5.04 9.17-4.53 15.77z" fill="#e1d9dc"/><path d="M20.18 58.85c.42 5.21 2.61 9.85 7.36 11.37a11.93 11.93 0 003.62.59 16.2 16.2 0 00-1.6 6.27 7.84 7.84 0 003.56 6.81 11.69 11.69 0 002.32 1.17 9.15 9.15 0 002.57.62c1.28-2.18 3.61-6.42 3.65-11.07a51.64 51.64 0 00-.43-6.21C40.86 73.88 38 73 36.45 72a10 10 0 01-.88-.63C32.92 69 30 50.31 35.18 52a.57.57 0 01.25.1c.72.49 2.18 2.83 3.22 5a18.89 18.89 0 011 2.11c-.45-2-.94-3.83-1.4-5.25-.17-.51-.34-1-.5-1.39-1.26-3.15-3-5.58-2-8.55-3-2.2-7.33-4-10.94-1.38-3.02 2.19-5.16 9.51-4.63 16.21z" fill="#e2dadd"/><path d="M19.59 58.74c.43 5.34 2.69 10.1 7.6 11.63a12.7 12.7 0 003.73.56 16.69 16.69 0 00-1.67 6.43 8 8 0 003.63 7 11.94 11.94 0 002.37 1.21 9.42 9.42 0 002.64.66c1.32-2.22 3.73-6.57 3.78-11.35a50.14 50.14 0 00-.43-6.36c-.39 5.65-3.28 4.72-4.93 3.72a7.89 7.89 0 01-.91-.65c-2.74-2.36-5.72-21.74-.39-20a.93.93 0 01.25.12c.74.51 2.24 2.92 3.32 5.12a19.23 19.23 0 011 2.24c-.47-2.08-1-4-1.45-5.43-.18-.53-.35-1-.52-1.44-1.3-3.25-3.15-5.76-2-8.84-3-2.22-7.57-4.08-11.29-1.29-3.09 2.34-5.32 9.83-4.73 16.67z" fill="#e3dbde"/><path d="M19 58.64c.45 5.46 2.77 10.34 7.84 11.87a12.83 12.83 0 003.85.55 16.67 16.67 0 00-1.75 6.58 8.2 8.2 0 003.69 7.19 12.57 12.57 0 002.43 1.26 10.08 10.08 0 002.71.69c1.37-2.27 3.86-6.73 3.92-11.63a52.81 52.81 0 00-.44-6.52c-.4 5.84-3.38 4.9-5.08 3.87a7.81 7.81 0 01-1-.67c-2.82-2.42-5.91-22.44-.39-20.55a.69.69 0 01.26.11c.76.55 2.3 3 3.41 5.3A18 18 0 0139.58 59c-.47-2.14-1-4.08-1.49-5.6-.18-.55-.36-1-.53-1.49-1.34-3.35-3.26-6-2.12-9.11-3.14-2.26-7.8-4.14-11.64-1.22C20.68 44 18.44 51.66 19 58.64z" fill="#e4dcdf"/><path d="M18.41 58.53c.47 5.6 2.85 10.59 8.09 12.13a13.12 13.12 0 003.95.52 17.33 17.33 0 00-1.82 6.75 8.38 8.38 0 003.75 7.37 12.62 12.62 0 002.49 1.3 10.08 10.08 0 002.78.73c1.42-2.31 4-6.88 4.05-11.91a53.39 53.39 0 00-.44-6.67c-.41 6-3.47 5.07-5.23 4a6.91 6.91 0 01-1-.69c-2.91-2.47-6.1-23.14-.4-21.16a.77.77 0 01.27.12c.78.57 2.36 3.11 3.51 5.46A20.61 20.61 0 0139.56 59c-.49-2.21-1-4.22-1.54-5.79-.18-.56-.37-1.08-.55-1.52-1.38-3.47-3.36-6.14-2.19-9.41-3.22-2.28-8-4.18-12-1.13-3.16 2.42-5.45 10.26-4.87 17.38z" fill="#e4dde0"/><path d="M17.82 58.42c.48 5.73 2.93 10.85 8.33 12.38a13.24 13.24 0 004.07.5 17.64 17.64 0 00-1.9 6.91 8.58 8.58 0 003.82 7.56 13.42 13.42 0 002.54 1.35 10.18 10.18 0 002.84.75c1.47-2.35 4.13-7 4.2-12.18a54.28 54.28 0 00-.45-6.83c-.42 6.2-3.57 5.25-5.38 4.16a8.25 8.25 0 01-1-.71c-3-2.53-6.29-23.84-.4-21.77a.66.66 0 01.27.13c.81.59 2.43 3.2 3.62 5.62a23.36 23.36 0 011.18 2.6c-.51-2.27-1.06-4.35-1.59-6a29.9 29.9 0 00-.56-1.57C36 47.79 33.92 45 35.13 41.67c-3.32-2.31-8.26-4.23-12.32-1-3.24 2.48-5.59 10.49-4.99 17.75z" fill="#e5dee1"/><path d="M17.23 58.31c.5 5.86 3 11.1 8.57 12.64a14 14 0 004.18.48 18 18 0 00-2 7.06 8.77 8.77 0 003.89 7.74 13 13 0 002.6 1.4 10.54 10.54 0 002.91.79C38.92 86 41.66 81.24 41.73 76a55 55 0 00-.45-7c-.43 6.38-3.66 5.43-5.53 4.32a9.25 9.25 0 01-1.06-.74C31.61 70 28.22 48 34.3 50.17a.82.82 0 01.27.13c.83.62 2.49 3.29 3.72 5.79a24.5 24.5 0 011.23 2.73c-.52-2.34-1.09-4.48-1.63-6.14-.2-.6-.4-1.14-.59-1.62-1.46-3.67-3.57-6.5-2.32-10-3.41-2.34-8.5-4.28-12.67-1-3.31 2.67-5.7 10.85-5.08 18.25z" fill="#e6dfe2"/><path d="M16.64 58.2c.52 6 3.09 11.36 8.81 12.89a13.86 13.86 0 004.3.46 18.33 18.33 0 00-2.06 7.22 9 9 0 003.95 7.94 14.14 14.14 0 002.66 1.43 10.81 10.81 0 003 .83c1.57-2.43 4.39-7.33 4.47-12.73a55.59 55.59 0 00-.46-7.15c-.44 6.56-3.75 5.6-5.68 4.46a8.93 8.93 0 01-1.09-.76c-3.17-2.63-6.67-25.24-.4-23a1 1 0 01.28.14c.85.64 2.55 3.38 3.82 6a27.62 27.62 0 011.28 2.86c-.54-2.42-1.12-4.61-1.68-6.33-.21-.61-.41-1.17-.6-1.65-1.51-3.79-3.68-6.69-2.4-10.26-3.5-2.38-8.72-4.33-13-.88-3.39 2.64-5.84 10.99-5.2 18.53z" fill="#e7e0e3"/><path d="M16.05 58.09c.53 6.13 3.17 11.61 9.05 13.15a14.94 14.94 0 004.41.44 18.66 18.66 0 00-2.13 7.38 9.14 9.14 0 004 8.11 13.57 13.57 0 002.71 1.49 11.88 11.88 0 003 .86c1.61-2.48 4.52-7.48 4.61-13a55 55 0 00-.48-7.31c-.45 6.74-3.84 5.77-5.82 4.61a8.59 8.59 0 01-1.06-.82c-3.25-2.69-6.85-25.94-.4-23.6a.7.7 0 01.28.15c.89.67 2.62 3.47 3.93 6.11a28.67 28.67 0 011.33 3c-.56-2.47-1.16-4.73-1.73-6.5-.21-.63-.42-1.2-.61-1.7-1.56-3.89-3.8-6.88-2.47-10.54-3.59-2.41-9-4.38-13.35-.8-3.42 2.77-5.92 11.29-5.27 18.97z" fill="#e8e2e4"/><path d="M15.46 58c.55 6.26 3.25 11.86 9.29 13.4a14.78 14.78 0 004.53.42 19 19 0 00-2.21 7.54 9.34 9.34 0 004.08 8.3 14.52 14.52 0 002.78 1.53 11.54 11.54 0 003.11.89c1.66-2.51 4.65-7.63 4.74-13.28a55.56 55.56 0 00-.48-7.46c-.46 6.92-3.93 6-6 4.75a9.38 9.38 0 01-1.16-.8c-3.35-2.75-7-26.64-.4-24.21a.86.86 0 01.28.15c.91.7 2.68 3.57 4 6.29a28.59 28.59 0 011.37 3.1c-.56-2.55-1.18-4.87-1.77-6.68-.21-.65-.42-1.24-.63-1.75-1.59-4-3.9-7.06-2.53-10.82-3.69-2.44-9.19-4.43-13.7-.72-3.42 2.82-5.97 11.52-5.3 19.35z" fill="#e9e3e5"/><path d="M14.87 57.87c.56 6.4 3.33 12.12 9.54 13.66a15.11 15.11 0 004.63.39 19.45 19.45 0 00-2.28 7.7 9.51 9.51 0 004.14 8.49 15.16 15.16 0 002.84 1.57 11.91 11.91 0 003.18.93c1.7-2.55 4.78-7.78 4.88-13.56a58.08 58.08 0 00-.49-7.62c-.47 7.1-4 6.12-6.12 4.9a9.34 9.34 0 01-1.2-.82c-3.43-2.81-7.23-27.34-.4-24.82a1 1 0 01.29.16c.93.72 2.74 3.65 4.12 6.45a29.87 29.87 0 011.43 3.22c-.58-2.61-1.21-5-1.82-6.85-.22-.67-.44-1.27-.64-1.8-1.64-4.09-4-7.24-2.61-11.1-3.77-2.47-9.41-4.48-14-.63-3.57 2.92-6.18 11.78-5.49 19.73z" fill="#eae4e6"/><path d="M14.28 57.77c.58 6.52 3.41 12.36 9.78 13.9a15.59 15.59 0 004.75.38 19.55 19.55 0 00-2.36 7.85 9.69 9.69 0 004.21 8.68 16 16 0 002.89 1.62 12.61 12.61 0 003.25 1c1.75-2.6 4.91-7.94 5-13.84a58.86 58.86 0 00-.49-7.78c-.48 7.29-4.13 6.31-6.27 5a9.12 9.12 0 01-1.23-.84c-3.52-2.86-7.43-28-.41-25.43a.78.78 0 01.3.17c.95.74 2.8 3.74 4.22 6.61a31 31 0 011.48 3.35c-.6-2.68-1.25-5.13-1.87-7-.22-.68-.44-1.3-.66-1.83-1.68-4.21-4.11-7.43-2.67-11.39-3.87-2.5-9.65-4.53-14.38-.55-3.59 2.97-6.25 12-5.54 20.1z" fill="#eae5e7"/><path d="M13.69 57.66c.6 6.66 3.49 12.62 10 14.16a16 16 0 004.86.35 20.14 20.14 0 00-2.43 8 9.91 9.91 0 004.27 8.86 15.42 15.42 0 002.95 1.66 12.76 12.76 0 003.32 1c1.8-2.64 5-8.09 5.15-14.11a59.58 59.58 0 00-.5-7.94c-.49 7.46-4.22 6.48-6.42 5.2a10.81 10.81 0 01-1.25-.84C30 71.07 26 45.25 33.23 48a1.17 1.17 0 01.3.17c1 .78 2.88 3.84 4.33 6.78a34.24 34.24 0 011.53 3.48c-.61-2.75-1.28-5.26-1.92-7.22-.23-.7-.45-1.33-.67-1.88-1.73-4.31-4.22-7.61-2.74-11.67-4-2.53-9.88-4.58-14.73-.47-3.65 3.03-6.33 12.23-5.64 20.47z" fill="#ebe6e8"/><path d="M13.1 57.55c.61 6.79 3.58 12.87 10.26 14.41a16.21 16.21 0 005 .34 20.35 20.35 0 00-2.51 8.17 10.07 10.07 0 004.33 9 16.65 16.65 0 003 1.71 13 13 0 003.39 1c1.84-2.67 5.17-8.24 5.29-14.38a60.6 60.6 0 00-.51-8.1c-.5 7.65-4.31 6.65-6.57 5.35a8.92 8.92 0 01-1.3-.89c-3.7-3-7.81-29.44-.41-26.65a1 1 0 01.3.18c1 .8 2.94 3.93 4.43 6.94a34.42 34.42 0 011.58 3.61c-.63-2.82-1.31-5.4-2-7.4-.23-.72-.46-1.37-.69-1.93C35 44.57 32.39 41.19 33.9 37c-4-2.56-10.11-4.63-15.07-.39-3.71 3.19-6.47 12.56-5.73 20.94z" fill="#ece7e9"/><path d="M12.51 57.44c.63 6.92 3.65 13.14 10.5 14.67a17 17 0 005.09.31 20.83 20.83 0 00-2.58 8.33A10.31 10.31 0 0029.91 90 17.32 17.32 0 0033 91.74a13.4 13.4 0 003.46 1.06c1.89-2.72 5.29-8.39 5.42-14.66a61.3 61.3 0 00-.51-8.26c-.51 7.83-4.41 6.84-6.73 5.5a11 11 0 01-1.33-.91c-3.78-3-8-30.15-.41-27.26a1.15 1.15 0 01.31.18c1 .83 3 4 4.53 7.12a33.19 33.19 0 011.62 3.72c-.64-2.89-1.34-5.52-2-7.57-.25-.74-.48-1.41-.71-2-1.81-4.52-4.43-8-2.88-12.23-4.14-2.59-10.34-4.68-15.42-.31-3.78 3.26-6.6 12.8-5.84 21.32z" fill="#ede8ea"/><path d="M11.93 57.33c.64 7.06 3.73 13.38 10.73 14.92a16.82 16.82 0 005.21.29A21.09 21.09 0 0025.21 81a10.47 10.47 0 004.46 9.43 16.62 16.62 0 003.12 1.79 13.72 13.72 0 003.52 1.1c1.95-2.76 5.43-8.54 5.57-14.94a62 62 0 00-.52-8.38c-.52 8-4.5 7-6.88 5.64a9.21 9.21 0 01-1.36-.93c-3.86-3.09-8.19-30.85-.42-27.87a1.08 1.08 0 01.3.16c1.06.85 3.07 4.11 4.63 7.28a35.64 35.64 0 011.68 3.85c-.65-3-1.37-5.65-2-7.76-.25-.75-.49-1.43-.73-2-1.89-4.61-4.58-8.15-2.98-12.5-4.23-2.62-10.58-4.73-15.76-.22C14 39 11.14 48.68 11.93 57.33z" fill="#eee9eb"/><path d="M11.34 57.22c.65 7.19 3.81 13.64 11 15.18a17.6 17.6 0 005.32.27 21.36 21.36 0 00-2.73 8.64 10.65 10.65 0 004.52 9.62 17.87 17.87 0 003.18 1.84 14.45 14.45 0 003.59 1.13c2-2.81 5.56-8.7 5.7-15.22a61.23 61.23 0 00-.52-8.57c-.53 8.19-4.6 7.19-7 5.8a12.6 12.6 0 01-1.4-1c-4-3.1-8.43-31.51-.47-28.44a1.23 1.23 0 01.31.19c1.08.88 3.13 4.21 4.73 7.45a36.68 36.68 0 011.73 4c-.67-3-1.4-5.78-2.1-7.93-.25-.77-.5-1.46-.74-2.07-1.89-4.73-4.65-8.34-3-12.79-4.32-2.65-10.8-4.78-16.1-.14-3.91 3.36-6.83 13.25-6.02 22.04z" fill="#efebec"/><path class="cls-163" d="M16.84 34.65c-3.94 3.47-6.91 13.53-6.09 22.46s5.43 16.73 16.65 15.68c-2.53 4.58-6.69 15.16 5 20.49a14.25 14.25 0 003.66 1.16c2-2.84 5.69-8.84 5.84-15.49a63.5 63.5 0 00-.53-8.72c-.68 10.39-6.91 6.32-8.61 5-4-3.21-8.57-32.26-.42-29.1 1.34.52 5.43 7.65 6.93 11.91a72 72 0 00-2.91-10.22c-1.93-4.84-4.75-8.53-3.08-13.08-4.4-2.74-11.02-4.86-16.44-.09z"/><path class="cls-122" d="M40.52 67.29S25.91 69 25.59 66.52s4-2.54 15.1-3.12a9 9 0 00-.17 3.89z"/><path class="cls-124" d="M46.53 43.17a1.85 1.85 0 002.39.18 6.19 6.19 0 01-1.32-.24c-1.43-.39-2.25-1.75-3.16-2.47a18 18 0 002.09 2.53z"/><path class="cls-163" d="M54.35 42.73c1.23-1.78 5.88-4.1 6.7-5.33a2.08 2.08 0 00.11-1.67 4.26 4.26 0 01-2.22 2.76c-3.07 1.93-4.61 1.35-6.53 3.08-1.47 1.31-2.26 1.85-3.49 1.78a1.85 1.85 0 01-2.39-.18 18 18 0 01-2.09-2.53 1.7 1.7 0 00-1.44-.42 7.87 7.87 0 01-1.54.23c-.56.66-1.26 1.12-2.88-.32s-2.79-3.22-4.49-4.92c-.26-.17-.52-.34-.79-.5-1.67 4.55 1.15 8.24 3.08 13.08 2.46 6.15 5.23 22.35 5 31.58a28 28 0 01-5.33 15.07c11 1.73 8.66-18 8.84-22.69a25.9 25.9 0 014-12.5 57.24 57.24 0 004.87-10.62c.05-2.42-.16-4.82.59-5.9z"/><path class="cls-124" d="M61.16 35.73a2.08 2.08 0 01-.11 1.67c-.82 1.23-5.47 3.55-6.7 5.33-.75 1.08-.54 3.48-.53 5.9.13-.47.24-.9.32-1.29.57-3.08.38-4.23 1.92-5.58s8.26-3.27 5-7.3a2.36 2.36 0 01.1 1.27zM38.57 40.13c1.62 1.44 2.32 1 2.88.32-1.11 0-2.2-.43-3.65-2.15a18.84 18.84 0 00-3.72-3.09c1.7 1.7 2.92 3.57 4.49 4.92z"/><path d="M110 32.3c4.54.57 5.58 3.74 10.34 10.21s5.82 4.36 10.86 3.78 5 3 8.93 7.9 5.94 2.88 8.62 1.8 8.46 1.39 12.88 2.25a9.38 9.38 0 004.05 0c-24.09-6.26-56.81-36.8-64.4-40.76-8.5-4.43-12.69-7-16.81-6.92C90.81 13.89 98 22 101.41 28.1c4.26 7.63 4.09 3.63 8.59 4.2z" fill="#556a22"/><path class="cls-23" d="M80.26 11.22c1.81.4 5.82 5.1 5.88 7.64s3.75 5.91 8.06 7.82 3.75 5.9 5.72 9.82 4.42 2.89 8.73 4.8 3.78 4.33 6.55 10.33 5.63 3.15 10.25 2.29 5.25 3.39 10.37 7.39 6.16.74 12.26-1.06 5.66 1.58 6.93 4.4 11.69-2.77 11.69-2.77l7.21-2.5a31.6 31.6 0 01-8.19-1.11 9.38 9.38 0 01-4.05 0c-4.42-.86-10.2-3.32-12.88-2.25s-4.74 3.11-8.62-1.8-3.9-8.49-8.93-7.9-6.1 2.69-10.86-3.78-5.8-9.67-10.38-10.24-4.37 3.43-8.63-4.2C98 22 90.81 13.89 84.49 10.59c-4.1.03-6.04.22-4.23.63z"/></symbol><symbol id="Deleted_Symbol_4" data-name="Deleted Symbol 4" viewBox="0 0 94.55 180.81"><use width="180.81" height="94.55" transform="rotate(90 47.275 47.275)" xlink:href="#Deleted_Symbol_1"/></symbol><symbol id="Calla_Lily" data-name="Calla Lily" viewBox="0 0 94.55 180.81"><use width="94.55" height="180.81" xlink:href="#Deleted_Symbol_4"/></symbol><symbol id="Sunflower" data-name="Sunflower" viewBox="0 0 49.92 51.56"><path class="cls-1" d="M0 0h49.92v51.56H0z"/><path class="cls-188" d="M6.37 30.91h.33v-.09zM45.87 20.18a8.31 8.31 0 01-2.79.49c.05.17.09.36.14.54.94-.15 2.15-.04 2.65-1.03zM38.75 10.72a2.31 2.31 0 00.39-1.2c-.13.3-.4.47-.38.76s0 .29-.01.44zM40 38.24a5.72 5.72 0 01-.37-.49v.12zM8.79 15.9a2.3 2.3 0 01.28.34l.09-.13a1 1 0 01-.37-.21zM33.82 41.26a3.24 3.24 0 00-.17-.32l-.38.18a2.61 2.61 0 01.55.14z"/><path d="M16.47 11.91c-.15.63-1.22 1-2.25 1a2.57 2.57 0 01-2.57.88 1.29 1.29 0 01.39 1v-.15c0 .29 0 .44.06.73-.58 0-1 .51-1.41.69a11 11 0 01-1.53 0l-.09.13c.45.1 1.2.64 1.12 1.22a1.47 1.47 0 01-.88 1.21c0 .25-.06.44-.15.47a5.74 5.74 0 00-1.92 1.34l.63.8c0 .58-1.09 1-.73 1.8s.72 1.94.22 2.29a7 7 0 01.11 1.77v0a.49.49 0 010 .12c-.12 1.7.24 3.07-.59 3.42a1.55 1.55 0 01-.23.08v.09a8.79 8.79 0 012.2.23L9 32.57c.34.55.65.82 1 1.37l.71 1.7a.28.28 0 010 .09l1 .14c-.3-.12-.71.2-.92.35v.88c.7-.34 1.68-.56 2 0a2.34 2.34 0 01.3 1.07 1.07 1.07 0 01.66 0 1.78 1.78 0 011.09 1.9 6.41 6.41 0 012.37.28l1.46.17A3.51 3.51 0 0119 42a1.24 1.24 0 001.2-.75 3.14 3.14 0 01.45.79c.42-.19 1.73.15 2.49-.44a1.21 1.21 0 01.05.18.52.52 0 01.32 0 1.73 1.73 0 011 .55 4.81 4.81 0 011.86-.66 1.09 1.09 0 011.11.63 4.17 4.17 0 010-.71c.24-.6 1.4-.69 2.32-.18a17.18 17.18 0 013.46-.28l.38-.18a1.36 1.36 0 01-.23-1.27c.16-.63 1.22-1 2.25-1a2.54 2.54 0 011.56-.9 1.13 1.13 0 010-.66c0-.15.75.23 1-.23 0-.14.12-.3-.33-.4a3.26 3.26 0 001-.14c-.18-.67-.19-1.46.34-1.72a1.7 1.7 0 01.9-.2 3.12 3.12 0 010-.74c0-.15-.19-.57.1-.6.58 0 1.21-.23 1.75-.26.09-.16.16-.33.24-.49l-1.53.12A5.84 5.84 0 0042.65 31l-.63-.8c0-.58 1.09-1 .73-1.81s-1.55-2.18-.47-3.14a4.41 4.41 0 011-.63h-.14A2.35 2.35 0 0142 22.1c.15-.6.62-.79 1.19-.89 0-.18-.09-.37-.14-.54a8.61 8.61 0 01-2.05-.24L40.91 19c-.33-.56-.65-.82-1-1.38l-.66-1.55a10.14 10.14 0 00-1.41-.61v-.44a11.2 11.2 0 00-.85-1h-.25v-.05a2.91 2.91 0 01-1-.31c-.09-.06-.09-.18-.08-.33a2.17 2.17 0 01-1-1.89 7.35 7.35 0 01-1.92-.3L31.25 11a3.76 3.76 0 01-.32-1.5 1.22 1.22 0 00-1.19.75 3.06 3.06 0 01-.46-.79c-.42.18-1.73-.16-2.49.44a8.53 8.53 0 01-.41-1.6h-.58a4 4 0 01-.23.86 4.28 4.28 0 01-2 .76 1.08 1.08 0 01-1.1-.63 3.35 3.35 0 01-.06.71c-.24.6-1.4.69-2.31.18-1.33.11-2.8.56-4 .15l-.14.08a1.33 1.33 0 01.51 1.5z" fill="#715725" fill-rule="evenodd"/><path d="M18.39 14.89c-.12.49-.94.81-1.75.81a2 2 0 01-2 .68 1 1 0 01.3.81v-.12l.05.56c-.45 0-.76.4-1.09.54a7.79 7.79 0 01-1.19 0 .61.61 0 01-.07.1c.34.08.93.5.86.95a1.11 1.11 0 01-.68.93c0 .2 0 .35-.12.37a4.51 4.51 0 00-1.48 1l.49.62c0 .45-.85.74-.57 1.4s.56 1.5.17 1.77a4.84 4.84 0 01.08 1.37v.09c-.1 1.32.18 2.38-.46 2.65a.67.67 0 01-.18.07v.07a6.77 6.77 0 011.7.18l.09 1.12c.26.43.5.64.76 1.07l.56 1.31v.07l.74.11c-.23-.1-.55.15-.71.27v.68c.55-.26 1.31-.43 1.57 0a1.86 1.86 0 01.23.83.89.89 0 01.51 0 1.38 1.38 0 01.85 1.47A5 5 0 0119 37l1.14.13a2.78 2.78 0 01.24 1.17 1 1 0 00.93-.58 2.23 2.23 0 01.35.61c.32-.14 1.34.12 1.93-.34a.74.74 0 010 .14.43.43 0 01.25 0 1.43 1.43 0 01.75.43A3.64 3.64 0 0126 38a.84.84 0 01.86.48 3.19 3.19 0 010-.54c.19-.47 1.09-.54 1.8-.15a13 13 0 012.68-.21l.29-.14a1.08 1.08 0 01-.18-1c.12-.49.95-.8 1.75-.81a2 2 0 011.21-.7.92.92 0 010-.52c0-.11.58.19.77-.17 0-.11.1-.23-.25-.32a2.29 2.29 0 00.76-.1c-.15-.52-.15-1.13.26-1.33a1.2 1.2 0 01.7-.16 2.33 2.33 0 010-.58c0-.11-.15-.44.07-.45.46 0 .94-.19 1.36-.21a2.64 2.64 0 00.18-.38l-1.18.09a4.41 4.41 0 001.48-1l-.48-.62c0-.45.84-.74.56-1.4s-1.2-1.69-.36-2.44a3.47 3.47 0 01.74-.48h-.1a1.82 1.82 0 01-.84-2c.12-.46.48-.61.92-.68 0-.14-.06-.29-.11-.43a6.36 6.36 0 01-1.59-.18l-.09-1.12c-.26-.43-.5-.63-.76-1.07l-.51-1.19a6 6 0 00-.94-.55v-.34c-.19-.3-.46-.48-.66-.75h-.25a2.24 2.24 0 01-.76-.24c-.07-.05-.07-.15-.06-.25a1.69 1.69 0 01-.76-1.47 5.39 5.39 0 01-1.51-.25l-1.14-.13A2.81 2.81 0 0129.6 13a1 1 0 00-.93.58 2.23 2.23 0 01-.35-.61c-.32.14-1.34-.12-1.93.34a6.45 6.45 0 01-.32-1.24h-.45a3 3 0 01-.18.67 3.43 3.43 0 01-1.53.59.86.86 0 01-.86-.49 2.5 2.5 0 010 .55c-.19.46-1.09.53-1.8.14a8.33 8.33 0 01-3.09.12l-.11.06a1 1 0 01.34 1.18z" fill-rule="evenodd" fill="#231f20"/><path class="cls-188" d="M19.21 9.13l-.21.08a4.31 4.31 0 001.16.95 2.31 2.31 0 01-.95-1.03zM40.91 19a3.09 3.09 0 01.47-.36 1.6 1.6 0 00-.47.36z"/><path class="cls-191" d="M43.51 28.33c0-.16.07-.32.09-.48a2.27 2.27 0 00-.85.58c.25-.05.51-.07.76-.1zM5.93 26.67v.23a3.35 3.35 0 01.36-.21 2.17 2.17 0 00-.36-.02z"/><path class="cls-188" d="M9 32.57a3.09 3.09 0 01-.47.36 1.48 1.48 0 00.47-.36zM30.55 42.15h.16a4.1 4.1 0 00-.9-.7 2 2 0 01.74.7zM7.17 23.12l-.08.11zM22.49 9.27a1.08 1.08 0 001.1.63 4.28 4.28 0 002-.76 4 4 0 00.23-.86 4.26 4.26 0 00-.53-2.9c-.74-1.69-.89-3.71-1.9-5.38a10.76 10.76 0 01-.82 4.43 8.15 8.15 0 00-.48 3.07 4.69 4.69 0 01.4 1.77zM26.08 1a5.25 5.25 0 013 1.19 2.74 2.74 0 00-3-1.19zM29.38 9.42s-.06 0-.1.06a3.06 3.06 0 00.46.79 1.22 1.22 0 011.19-.75A3.41 3.41 0 0132 7.24a6.73 6.73 0 00-.65-2.34 8.7 8.7 0 00-2.27-2.76A5.58 5.58 0 0129.25 6a5.3 5.3 0 01.13 3.42z"/><path class="cls-191" d="M20.12 10.16A4.31 4.31 0 0119 9.21c-1-1.11-1.7-2.54-3.28-3.07-1.18-.2-2.14-1.28-3.3-1.19C14 6 14.12 8 15.13 9.68a2.35 2.35 0 001 .63c1.19.41 2.66-.04 3.99-.15z"/><path class="cls-188" d="M11.66 13.84a2.57 2.57 0 002.57-.84 3.13 3.13 0 01-1.17-.19 3.12 3.12 0 01-1.25-2.12 9.69 9.69 0 01-3.11-5.1c-.37 2.65-.39 6.14 2.09 8 .14 0 .27-.17.42-.18.12.09.29.25.45.43z"/><path class="cls-192" d="M32.72 11.2a7.35 7.35 0 001.92.3 1.47 1.47 0 01.11-.46c.24-.61 1.54-.71 2.26-.77.76-1.51 0-3.49-.7-5.18.43 2.24-1.63 3.36-3.49 3.91a8.17 8.17 0 01-.1 2.2zM7.17 23.12c-.36-.84.78-1.22.73-1.8l-.63-.8a5.72 5.72 0 01-.84.62c-.84.36-1.78-.43-2.64-.37a.37.37 0 01-.19 0c-1.22.06-2.44.09-3.6 0a6.49 6.49 0 004.58 2.43c.89-.02 1.79-.01 2.59-.08zM41.38 18.63a3.09 3.09 0 00-.47.36l.09 1.44a8.61 8.61 0 002.06.24 8.31 8.31 0 002.79-.49.83.83 0 00.07-.13v.1c1.95-.77 3.25-2.38 2.22-4.94a4.65 4.65 0 01-2.44 2.23 8.35 8.35 0 01-2.2.51 1.82 1.82 0 01-.07.25c-.18.26-1.23 0-2.05.43zM20.12 10.16c.91.51 2.07.42 2.31-.18a3.35 3.35 0 00.06-.71 4.69 4.69 0 00-.4-1.77 4.65 4.65 0 00-3.28-2.77 7.25 7.25 0 00.4 4.4 2.31 2.31 0 00.91 1.03z"/><path class="cls-188" d="M13.05 12.76a3.13 3.13 0 001.17.19c1 0 2.1-.41 2.25-1a1.33 1.33 0 00-.47-1.56c-.88-.64-2.6-.67-3.78-.77 0-.58-.33-.55-.64-.82a14.45 14.45 0 00.23 1.84 3.12 3.12 0 001.24 2.12z"/><path class="cls-192" d="M6.43 21.14a5.72 5.72 0 00.84-.62 5.74 5.74 0 011.92-1.34c.09 0 .13-.22.15-.47a2.37 2.37 0 01-1.64 0c-1.34-.34-1.49-2.22-2.57-3 .58-.05.91.51 1.36.62a7.88 7.88 0 012.61-.06 2.3 2.3 0 00-.28-.34.91.91 0 01-.17-.17c-1.23-1-3.48-.7-5-1.34-.16-.13-.45-.1-.47-.39-.27.31-.1.58-.08.88s.5.68.66 1c.4 1.28.23 2.89 1.59 3.51.2.05.4.07.6.1l-2.47.2c0 .25-.14 1 .2 1.11a.37.37 0 00.19 0c.78-.12 1.72.67 2.56.31z"/><path class="cls-191" d="M29.28 9.48s.08 0 .1-.06A5.3 5.3 0 0029.25 6a3.59 3.59 0 00-3-2.41 21.2 21.2 0 00.09 4.77 8.53 8.53 0 00.41 1.6c.8-.64 2.11-.3 2.53-.48z"/><path class="cls-188" d="M32.53 5.1a6.6 6.6 0 000 1.09 1.46 1.46 0 000-1.09zM30.93 9.52a3.76 3.76 0 00.32 1.5l1.47.18a8.17 8.17 0 00.1-2.2c-.08-.94-.23-1.87-.28-2.81a4 4 0 00-.17.67l-.37.38a3.41 3.41 0 00-1.07 2.28zM41.12 16.2a2.06 2.06 0 01-1.85-.14l.66 1.55c.33.56.65.82 1 1.38a1.6 1.6 0 01.47-.36c.82-.43 1.87-.17 2.09-.43a1.82 1.82 0 00.07-.25 4 4 0 00-1-4c.18.8-.14 1.12-.66 1.25a2 2 0 01-.09.26 1.65 1.65 0 01-.69.74zM27.44 42.29a1.09 1.09 0 00-1.11-.63 4.81 4.81 0 00-1.86.66 3 3 0 010 3.48 1.84 1.84 0 00.17.38c.71 1.68.87 3.71 1.88 5.38a10.67 10.67 0 01.81-4.44 8.26 8.26 0 00.49-3.06 4.54 4.54 0 01-.38-1.77z"/><path class="cls-191" d="M23.84 50.61a5.25 5.25 0 01-3-1.19 2.73 2.73 0 003 1.19z"/><path class="cls-188" d="M20.55 42.13l.09-.05a3.14 3.14 0 00-.45-.79A1.24 1.24 0 0119 42a3.39 3.39 0 01-1.07 2.28 6.64 6.64 0 00.66 2.33 8.63 8.63 0 002.27 2.77 5.64 5.64 0 01-.15-3.79 5.26 5.26 0 01-.16-3.46z"/><path class="cls-192" d="M35.76 46.07a3.26 3.26 0 001.74.54c-1.54-1-1.7-3.07-2.71-4.73a2.27 2.27 0 00-1-.62 2.61 2.61 0 00-.55-.14 17.18 17.18 0 00-3.46.28 4.1 4.1 0 01.9.7c.94.93 1.55 2.16 2.66 2.9a4 4 0 00.83.42 5.17 5.17 0 011.59.65z"/><path class="cls-188" d="M38.92 39.82c-.41-.78-1.43-1.33-1.66-2.12a2.54 2.54 0 00-1.56.9 3 3 0 011.18.19 3.07 3.07 0 011.24 2.11 9.77 9.77 0 013.12 5.1 11.88 11.88 0 00-.3-5.48 2 2 0 01-2.02-.7z"/><path class="cls-191" d="M17.21 40.36a6.41 6.41 0 00-2.37-.28 3 3 0 01-.14.79 2.68 2.68 0 01-2.1 1.62 9.57 9.57 0 001 4c-.43-2.24 1.64-3.36 3.5-3.91a8.15 8.15 0 01.11-2.22z"/><path class="cls-188" d="M42 30.24l.63.8a6.34 6.34 0 01.84-.63c.85-.36 1.78.44 2.65.37a.48.48 0 01.18 0c1.22-.06 2.45-.09 3.6 0a7 7 0 00-6.41-2.44c-.25 0-.51.05-.76.1.38.84-.73 1.22-.73 1.8zM8.54 32.93a3.09 3.09 0 00.46-.36l-.1-1.45a8.79 8.79 0 00-2.2-.23h-.33a3.25 3.25 0 01-1.11.11c-2.62.5-4.76 2.22-3.51 5.31a4.61 4.61 0 012.44-2.23 8.71 8.71 0 012.19-.52c0-.08 0-.17.08-.25.22-.21 1.27.05 2.08-.38zM29.81 41.4c-.92-.51-2.08-.42-2.32.18a4.17 4.17 0 000 .71 4.54 4.54 0 00.4 1.77 4.63 4.63 0 003.27 2.77 6.8 6.8 0 00-.56-4.68 2 2 0 00-.79-.75z"/><path class="cls-191" d="M36.88 38.8a3 3 0 00-1.18-.19c-1 0-2.09.41-2.25 1a1.36 1.36 0 00.23 1.27c.73.88 2.73.9 4 1 0 .58.34.56.65.83a14.88 14.88 0 00-.24-1.85 3.07 3.07 0 00-1.21-2.06z"/><path class="cls-188" d="M43.49 30.41a6.34 6.34 0 00-.84.63 5.84 5.84 0 01-1.91 1.34l1.53-.12 1.07-.09 3.18-.25c0-.25.15-1-.2-1.11a.48.48 0 00-.18 0c-.87.04-1.8-.76-2.65-.4zM22.85 44.59a2.53 2.53 0 01-.16-2 .93.93 0 01.49-.74 1.21 1.21 0 00-.05-.18c-.76.59-2.07.25-2.49.44l-.09.05a5.26 5.26 0 00.13 3.47A3.57 3.57 0 0023.63 48c.06-.82.1-1.68.09-2.55-.31-.36-.72-.6-.87-.86zM17.4 46.46a10.09 10.09 0 000-1.1 1.44 1.44 0 000 1.1zM19 42a3.51 3.51 0 00-.32-1.51l-1.46-.17a8.15 8.15 0 00-.1 2.2c.07.93.22 1.86.28 2.8a2.86 2.86 0 00.16-.66c.14-.13.25-.25.37-.38A3.39 3.39 0 0019 42zM8.34 36a3.84 3.84 0 012.38-.26.28.28 0 000-.09L10 33.94c-.34-.55-.65-.82-1-1.37a1.48 1.48 0 01-.47.36c-.81.43-1.86.17-2.08.42 0 .08 0 .17-.08.25a4 4 0 001 4c-.16-.73.09-1.07.53-1.22a1.39 1.39 0 01.44-.38zM7.5 27.18a7 7 0 00-.11-1.77c-1.23.6-2.37-.58-3.62-1a11.71 11.71 0 00-2.82.64c-.55.33.43 1.71 1.32 1.93 1.08.18 2.35-.38 3.69-.34a2.17 2.17 0 01.36 0 2.24 2.24 0 011.18.54zM7.5 27.18v.21"/><path class="cls-188" d="M6.37 30.91l.3-.11a1.55 1.55 0 00.23-.08c.83-.35.47-1.72.59-3.42a.49.49 0 000-.12 2.24 2.24 0 00-1.21-.49 3.35 3.35 0 00-.36.21 5.7 5.7 0 00-1.79 2 6.76 6.76 0 01-3.43.85c1.52.3 3.07 1.25 4.56 1.25a3.25 3.25 0 001.11-.09zm1.06-3.66zM7.36 25.44c.5-.35.14-1.46-.22-2.29l-.08.11.08-.11c-.8.07-1.7.06-2.59.1a9 9 0 00-2 .27c-.26.32.36.85.65.82a3.65 3.65 0 01.55.13c1.25.39 2.38 1.53 3.61.97zM45.87 20.18c-.5 1-1.71.88-2.65 1-.57.1-1 .29-1.19.89a2.35 2.35 0 001.07 2.54h.14A7.44 7.44 0 0146 24c.66-.93.05-2.49-.08-3.87v-.1a.83.83 0 01-.05.15z"/><path class="cls-192" d="M43.24 24.66a4.41 4.41 0 00-1 .63c-1.08 1 .19 2.31.47 3.14a2.27 2.27 0 01.85-.58c1-.38 2.13-.06 3.21-.6a4.76 4.76 0 001.77-3.34c-.8.06-1.67.05-2.54.11a7.44 7.44 0 00-2.76.64z"/><path class="cls-188" d="M8.79 15.9a1 1 0 00.37.21 11 11 0 001.53 0c.43-.18.83-.65 1.41-.69 0-.29 0-.44-.06-.73v.15a1.29 1.29 0 00-.39-1c-.16-.18-.33-.34-.46-.5-.15 0-.28.17-.42.18-.3-.12-.47-.4-.76-.38a10 10 0 01-2 .17c-.74-.24-1.26-1.21-2-1.45-.3-.12-.11.45-.1.59a30.91 30.91 0 012.73 3.27.91.91 0 00.15.18zM10.22 17.5c.08-.58-.67-1.12-1.12-1.22a7.88 7.88 0 00-2.61.06c-.45-.11-.78-.67-1.36-.62 1.08.78 1.23 2.66 2.57 3a2.37 2.37 0 001.64 0 1.47 1.47 0 00.88-1.22z"/><path class="cls-192" d="M37.83 15v.44a10.14 10.14 0 011.41.61 2.06 2.06 0 001.85.14 1.65 1.65 0 00.67-.78 2 2 0 00.09-.26 12.73 12.73 0 00.2-5.29 3.86 3.86 0 01-2.83 3.62v.39c-.12.75-.99.67-1.39 1.13z"/><path class="cls-188" d="M37.88 13.84a2.11 2.11 0 01-.9.21 11.2 11.2 0 01.85 1c.4-.47 1.27-.39 1.37-1.13v-.39a17.56 17.56 0 00-.11-4 2.31 2.31 0 01-.39 1.2c.03 1.18.03 2.4-.82 3.11zM36.73 14.08z"/><path class="cls-188" d="M34.75 11a1.47 1.47 0 00-.11.46 2.17 2.17 0 001 1.89c0 .15 0 .27.08.33a2.91 2.91 0 001 .31H37a2.11 2.11 0 00.9-.21c.85-.71.85-1.93.87-3.12v-.44c0-.14.25-.46.38-.76 0-.14-.18-.42-.19-.56a3.69 3.69 0 011.56-2.31c-.41.32-1.14.23-1.55.56-1 .94-.67 2.67-2 3.06-.68.12-1.97.22-2.22.79zM40.18 33.61a.56.56 0 01.7-.35c.74.23 1.88-.15 2.09.7.12.58.27 1.12.41 1.66a3.45 3.45 0 002.78 0 1.35 1.35 0 00.75-1.52 4.24 4.24 0 01-3.86-1 1.21 1.21 0 00-1-.34c-.54 0-1.17.22-1.75.26-.3-.02-.14.44-.12.59zM40.14 34.35a1.7 1.7 0 00-.9.2c-.53.26-.52 1.05-.34 1.72a.49.49 0 01.48.16c.3.38.13.91.24 1.32a5.72 5.72 0 00.37.49l.37.4a3.73 3.73 0 004.23 1c-1.15.24-1.82-.88-2.18-1.72-.21-.47-.39-1-.61-1.61l-.25-.07a2.08 2.08 0 01-1.41-1.89z"/><path class="cls-192" d="M39.64 37.87v-.12c-.11-.41.06-.94-.24-1.32a.49.49 0 00-.48-.16 3.26 3.26 0 01-1 .14c.45.1.32.26.33.4-.25.46-1 .08-1 .23a1.13 1.13 0 000 .66c.23.79 1.25 1.34 1.66 2.12a2 2 0 002 .72 1.66 1.66 0 00.22 0 3.28 3.28 0 01-.24-1.14 4.42 4.42 0 00-.56-.73l-.37-.4z"/><path class="cls-188" d="M40.88 33.26a.56.56 0 00-.7.35 3.12 3.12 0 000 .74 2.08 2.08 0 001.41 1.91l.25.07a3 3 0 011.87.93 10.58 10.58 0 00-.29-1.64c-.14-.54-.29-1.08-.41-1.66-.25-.85-1.39-.47-2.13-.7z"/><path class="cls-192" d="M24.47 42.32a1.73 1.73 0 00-1-.55.52.52 0 00-.32 0 .93.93 0 00-.49.74 2.53 2.53 0 00.16 2c.16.26.56.5.87.86a.6.6 0 01.08.08c0 .29.34.56.22.86a3 3 0 00.47-.59 3 3 0 00.01-3.4zM10.76 37.11v-.88c.21-.15.62-.47.92-.35l-1-.14a3.84 3.84 0 00-2.34.26 1.39 1.39 0 00-.43.44c-.63 1-.28 2.51-1.45 3.35-.28.16-.75-.23-1 .22a18.42 18.42 0 004-.47 1.8 1.8 0 00.75-.52c-.34-.7-.21-1.72.55-1.91z"/><path class="cls-188" d="M11.84 39.79a1.9 1.9 0 011.25-1.63 2.34 2.34 0 00-.3-1.07c-.33-.55-1.31-.33-2 0-.8.19-.89 1.21-.51 1.9a.91.91 0 00.09.17 4.74 4.74 0 01.26 1.43c0 .15-.41.33-.4.47a2.77 2.77 0 01-2.28 2.51 2.39 2.39 0 001.83-.87c.61-.63 1.36-1.22 2-1.89a4 4 0 01.06-1.02zM11.84 42.67h-.2a.4.4 0 00.2 0z"/><path class="cls-192" d="M14.7 40.87a3 3 0 00.14-.79 1.78 1.78 0 00-1.09-1.9 1.07 1.07 0 00-.66 0 1.9 1.9 0 00-1.25 1.63 4 4 0 00-.08 1c0 .58.12 1.17.16 1.72a.12.12 0 01-.08.12c.26-.05.51-.11.76-.18a2.68 2.68 0 002.1-1.6z"/><circle class="cls-193" cx="23" cy="17.69" r=".5"/><circle class="cls-193" cx="20.5" cy="18.44" r=".5"/><circle class="cls-193" cx="22.25" cy="20.69" r=".5"/><circle class="cls-193" cx="19.5" cy="20.69" r=".5"/><circle class="cls-193" cx="17.75" cy="21.94" r=".5"/><path class="cls-194" d="M17.25 20.19a.5.5 0 01-.5.5.5.5 0 01-.5-.5.51.51 0 01.5-.5.5.5 0 01.5.5zM15.75 23.44a.5.5 0 01-.5.5.5.5 0 110-1 .5.5 0 01.5.5zM16.25 25.19a.5.5 0 01-.5.5.5.5 0 01-.5-.5.51.51 0 01.5-.5.5.5 0 01.5.5zM17.25 23.44a.5.5 0 01-.5.5.5.5 0 010-1 .5.5 0 01.5.5z"/><circle class="cls-193" cx="19.25" cy="22.69" r=".5"/><circle class="cls-193" cx="25.25" cy="21.94" r=".5"/><circle class="cls-193" cx="25.75" cy="17.94" r=".5"/><circle class="cls-193" cx="31" cy="16.94" r=".5"/><circle class="cls-193" cx="28.5" cy="17.44" r=".5"/><path class="cls-194" d="M28 15.44a.5.5 0 01-.5.5.5.5 0 010-1 .5.5 0 01.5.5zM25.5 15.44a.5.5 0 01-.5.5.5.5 0 010-1 .5.5 0 01.5.5z"/><circle class="cls-193" cx="22" cy="14.94" r=".5"/><circle class="cls-193" cx="20" cy="16.69" r=".5"/><circle class="cls-193" cx="25" cy="19.69" r=".5"/><circle class="cls-193" cx="27" cy="19.44" r=".5"/><circle class="cls-193" cx="29.25" cy="19.19" r=".5"/><circle class="cls-193" cx="32.5" cy="19.44" r=".5"/><circle class="cls-193" cx="31" cy="16.94" r=".5"/><circle class="cls-193" cx="17.5" cy="29.19" r=".5"/><circle class="cls-193" cx="18.25" cy="31.69" r=".5"/><circle class="cls-193" cx="20.5" cy="29.94" r=".5"/><circle class="cls-193" cx="20.5" cy="32.69" r=".5"/><circle class="cls-193" cx="21.75" cy="34.44" r=".5"/><path class="cls-194" d="M20 34.94a.5.5 0 010 1 .5.5 0 010-1z"/><circle class="cls-193" cx="23.25" cy="36.94" r=".5"/><circle class="cls-193" cx="25" cy="36.44" r=".5"/><path class="cls-194" d="M23.25 34.94a.5.5 0 010 1 .5.5 0 010-1z"/><circle class="cls-193" cx="22.5" cy="32.94" r=".5"/><circle class="cls-193" cx="21.75" cy="26.94" r=".5"/><circle class="cls-193" cx="17.75" cy="26.44" r=".5"/><path class="cls-194" d="M16.75 20.69a.5.5 0 01.5.5.5.5 0 01-.5.5.5.5 0 01-.5-.5.51.51 0 01.5-.5z"/><circle class="cls-193" cx="17.25" cy="23.69" r=".5"/><path class="cls-194" d="M15.25 24.19a.5.5 0 01.5.5.5.5 0 01-.5.5.5.5 0 01-.5-.5.51.51 0 01.5-.5zM15.25 26.69a.5.5 0 01.5.5.5.5 0 01-.5.5.5.5 0 01-.5-.5.51.51 0 01.5-.5zM14.75 29.69a.5.5 0 01.5.5.5.5 0 01-.5.5.5.5 0 01-.5-.5.51.51 0 01.5-.5z"/><circle class="cls-193" cx="16.5" cy="32.19" r=".5"/><circle class="cls-193" cx="19.5" cy="27.19" r=".5"/><circle class="cls-193" cx="19.25" cy="25.19" r=".5"/><circle class="cls-193" cx="19" cy="22.94" r=".5"/><circle class="cls-193" cx="19.25" cy="19.69" r=".5"/><path class="cls-194" d="M16.75 20.69a.5.5 0 01.5.5.5.5 0 01-.5.5.5.5 0 01-.5-.5.51.51 0 01.5-.5zM29.82 31.67a.5.5 0 11.86-.52.5.5 0 01-.86.52zM31.58 29.73a.48.48 0 01.17-.68.5.5 0 01.68.17.5.5 0 11-.85.51zM28.92 28.71a.5.5 0 01.17-.69.51.51 0 01.69.17.5.5 0 01-.86.52zM31.28 27.29a.5.5 0 11.68.17.48.48 0 01-.68-.17zM32.13 25.32a.5.5 0 01.87-.52.5.5 0 11-.86.52zM33.89 26.3a.5.5 0 01.86-.51.51.51 0 01-.17.69.51.51 0 01-.69-.18zM33.5 22.75a.5.5 0 11.69.17.51.51 0 01-.69-.17zM32.18 21.5a.48.48 0 01.17-.68.49.49 0 01.65.18.5.5 0 11-.85.51zM32.22 23.52a.5.5 0 01.17-.69.5.5 0 11-.17.69zM30.46 25.45a.5.5 0 11.69.17.51.51 0 01-.69-.17zM25.7 29.18a.5.5 0 01.86-.52.5.5 0 01-.86.52zM27.33 32.87a.51.51 0 01.17-.69.5.5 0 01.5.82.51.51 0 01-.67-.13zM23.35 36.43a.5.5 0 11.68.17.5.5 0 01-.68-.17zM25.23 34.71a.5.5 0 01.17-.71.5.5 0 11.52.85.5.5 0 01-.69-.14zM27.12 35.91a.5.5 0 11.88-.51.5.5 0 01-.86.51zM29.26 34.62a.5.5 0 01.17-.68.5.5 0 11-.17.68zM32.09 33.51a.5.5 0 11.69.17.5.5 0 01-.69-.17zM32.91 31a.49.49 0 01.17-.69.5.5 0 01.68.17.5.5 0 11-.85.52zM27.08 31a.5.5 0 01.17-.69.5.5 0 01.51.86.49.49 0 01-.68-.17zM25.49 32.22a.49.49 0 01.17-.68.5.5 0 01.69.17.49.49 0 01-.18.68.48.48 0 01-.68-.17zM23.69 33.6a.5.5 0 01.86-.52.51.51 0 01-.18.69.5.5 0 01-.68-.17zM20.77 35.05a.5.5 0 01.18-.68.48.48 0 01.68.17.49.49 0 01-.17.68.5.5 0 01-.69-.17z"/><path class="cls-194" d="M23.35 36.43a.5.5 0 11.68.17.5.5 0 01-.68-.17z"/></symbol><style>.cls-1{fill:none}.cls-2{fill:#f7941d}.cls-3{fill:#ce7c17}.cls-4{fill:#faa74b}.cls-6{fill:#455894}.cls-7{fill:#fbae5a}.cls-21{fill:#3e896d}.cls-23{fill:#758b33}.cls-122{fill:#e0c953}.cls-124{fill:#d0c2c8}.cls-163{fill:#f0eced}.cls-168{fill:#dac2ce}.cls-179{fill:#ecdae2}.cls-180{fill:#ec5f5b}.cls-181{fill:#f08571}.cls-182{fill:#ed7063}.cls-183{fill:#f29581}.cls-186{fill:#d4b06e}.cls-188,.cls-191{fill:#fbc036}.cls-188,.cls-192,.cls-194{fill-rule:evenodd}.cls-192{fill:#d5a42e}.cls-193,.cls-194{fill:#917c52}</style></defs><g id="Layer_2" data-name="Layer 2"><g id="Layer_1-2" data-name="Layer 1"><use width="46.53" height="46.3" transform="matrix(8.08 0 0 7.9 41 173)" xlink:href="#Gerbera"/><use width="107.63" height="155.98" transform="matrix(2.8 0 0 3.44 135 107)" xlink:href="#Purple_Coneflower"/><use width="67.34" height="137.97" transform="matrix(4.23 0 0 3.6 47 107)" xlink:href="#Bird_of_Paradise"/><use width="94.55" height="180.81" transform="scale(3.13 3.57)" xlink:href="#Calla_Lily"/><use width="49.92" height="51.56" transform="matrix(3.89 0 0 3.78 158 310)" xlink:href="#Sunflower"/></g></g></svg>