<svg xmlns="http://www.w3.org/2000/svg" viewBox="0 0 447 350.5"><defs><style>.cls-1{fill:#960;}.cls-1,.cls-2,.cls-5{stroke:#000;stroke-miterlimit:10;}.cls-2{fill:#069;}.cls-3,.cls-7{font-size:12.02px;font-family:MyriadPro-Regular, Myriad Pro;}.cls-3,.cls-6{fill:#fff;}.cls-4,.cls-5{fill:none;}.cls-8{letter-spacing:-0.03em;}.cls-9{letter-spacing:-0.01em;}.cls-10{letter-spacing:0em;}</style></defs><g id="Layer_2" data-name="Layer 2"><g id="Layer_1-2" data-name="Layer 1"><ellipse class="cls-1" cx="259.09" cy="29.54" rx="28.09" ry="29.04"/><ellipse class="cls-2" cx="207.76" cy="222.32" rx="28.09" ry="29.04"/><ellipse class="cls-2" cx="294.93" cy="222.32" rx="28.09" ry="29.04"/><ellipse class="cls-2" cx="28.59" cy="320.96" rx="28.09" ry="29.04"/><ellipse class="cls-2" cx="129.31" cy="320.96" rx="28.09" ry="29.04"/><text class="cls-3" transform="translate(259.33 31.22) scale(0.97 1)">2</text><text class="cls-3" transform="translate(204.85 227.32) scale(0.97 1)">12</text><text class="cls-3" transform="translate(290.08 227.32) scale(0.97 1)">25</text><text class="cls-3" transform="translate(23.74 325.97) scale(0.97 1)">55</text><text class="cls-3" transform="translate(124.64 327.01) scale(0.97 1)">70</text><line class="cls-4" x1="235.61" y1="50.32" x2="187.18" y2="98.39"/><line class="cls-4" x1="277.25" y1="51.82" x2="344.56" y2="95.39"/><line class="cls-4" x1="243.84" y1="53.83" x2="179.43" y2="103.4"/><line class="cls-4" x1="176.04" y1="146.96" x2="204.61" y2="198.53"/><line class="cls-4" x1="235.61" y1="45.81" x2="94.2" y2="203.54"/><line class="cls-4" x1="235.61" y1="50.32" x2="187.18" y2="98.39"/><line class="cls-4" x1="231.25" y1="115.41" x2="230.76" y2="115.41"/><line class="cls-4" x1="235.61" y1="50.32" x2="235.12" y2="50.32"/><line class="cls-4" x1="187.18" y1="98.39" x2="235.12" y2="50.32"/><line class="cls-4" x1="179.43" y1="144.46" x2="201.71" y2="193.53"/><line class="cls-4" x1="72.41" y1="248.1" x2="42.87" y2="292.17"/><line class="cls-4" x1="96.62" y1="248.6" x2="124.71" y2="292.17"/><line class="cls-4" x1="96.62" y1="248.6" x2="145.53" y2="324.21"/><path class="cls-4" d="M232.22,37.3c-29.63,0-59.57,27.18-59.57,54.08"/><line class="cls-5" x1="235.85" y1="46.07" x2="179.67" y2="103.65"/><line class="cls-5" x1="282.82" y1="45.56" x2="344.81" y2="95.64"/><line class="cls-5" x1="376.77" y1="142.2" x2="413.57" y2="199.28"/><line class="cls-5" x1="341.9" y1="144.21" x2="302.68" y2="193.28"/><line class="cls-5" x1="176.29" y1="147.21" x2="201.47" y2="193.28"/><line class="cls-5" x1="143.84" y1="141.2" x2="93.96" y2="203.29"/><line class="cls-5" x1="101.23" y1="242.35" x2="124.47" y2="291.92"/><line class="cls-5" x1="62.97" y1="240.84" x2="28.59" y2="291.92"/><ellipse class="cls-1" cx="84.76" cy="222.32" rx="28.09" ry="29.04"/><text class="cls-3" transform="translate(79.92 227.32) scale(0.97 1)">17</text><ellipse class="cls-1" cx="163.69" cy="120.67" rx="28.09" ry="29.04"/><ellipse class="cls-1" cx="358.37" cy="120.67" rx="28.09" ry="29.04"/><text class="cls-3" transform="translate(160.69 123.02) scale(0.97 1)">7</text><text class="cls-3" transform="translate(353.52 125.68) scale(0.97 1)">10</text><ellipse class="cls-2" cx="418.41" cy="222.32" rx="28.09" ry="29.04"/><text class="cls-3" transform="translate(413.76 227.24) scale(0.97 1)">50</text><rect class="cls-6" x="207.04" y="281.65" width="22.28" height="9.51"/><text class="cls-7" transform="translate(354.23 20.28) scale(0.97 1)"><tspan class="cls-8">P</tspan><tspan x="6.08" y="0">a</tspan><tspan class="cls-9" x="11.87" y="0">r</tspan><tspan x="15.68" y="0">e</tspan><tspan class="cls-10" x="21.7" y="0">n</tspan><tspan x="28.32" y="0">t node</tspan></text><text class="cls-7" transform="translate(354.07 39.33) scale(0.97 1)">Child node</text><ellipse class="cls-1" cx="340.93" cy="15.27" rx="4.84" ry="5.26"/><ellipse class="cls-2" cx="340.93" cy="34.3" rx="4.84" ry="5.26"/></g></g></svg>