<svg xmlns="http://www.w3.org/2000/svg" viewBox="0 0 530 404.5"><defs><style>.cls-1{fill:#960;}.cls-1,.cls-2,.cls-5{stroke:#000;stroke-miterlimit:10;}.cls-2{fill:#069;}.cls-3,.cls-7{font-size:13.87px;font-family:MyriadPro-Regular, Myriad Pro;}.cls-3,.cls-6{fill:#fff;}.cls-4,.cls-5{fill:none;}.cls-8{letter-spacing:-0.03em;}.cls-9{letter-spacing:-0.01em;}.cls-10{letter-spacing:0em;}</style></defs><g id="Layer_2" data-name="Layer 2"><g id="Layer_1-2" data-name="Layer 1"><ellipse class="cls-1" cx="307.22" cy="34.03" rx="33.31" ry="33.53"/><ellipse class="cls-2" cx="246.33" cy="256.59" rx="33.31" ry="33.53"/><ellipse class="cls-2" cx="349.72" cy="256.59" rx="33.31" ry="33.53"/><ellipse class="cls-2" cx="33.81" cy="370.47" rx="33.31" ry="33.53"/><ellipse class="cls-2" cx="153.28" cy="370.47" rx="33.31" ry="33.53"/><text class="cls-3" transform="translate(307.5 35.97) scale(0.99 1)">2</text><text class="cls-3" transform="translate(242.89 262.37) scale(0.99 1)">12</text><text class="cls-3" transform="translate(343.98 262.37) scale(0.99 1)">25</text><text class="cls-3" transform="translate(28.07 376.25) scale(0.99 1)">55</text><text class="cls-3" transform="translate(147.74 377.46) scale(0.99 1)">70</text><line class="cls-4" x1="279.36" y1="58.02" x2="221.92" y2="113.51"/><line class="cls-4" x1="328.76" y1="59.75" x2="408.59" y2="110.05"/><line class="cls-4" x1="289.12" y1="62.07" x2="212.73" y2="119.3"/><line class="cls-4" x1="208.71" y1="169.59" x2="242.6" y2="229.13"/><line class="cls-4" x1="279.36" y1="52.82" x2="111.64" y2="234.91"/><line class="cls-4" x1="279.36" y1="58.02" x2="221.92" y2="113.51"/><line class="cls-4" x1="274.19" y1="133.17" x2="273.62" y2="133.17"/><line class="cls-4" x1="279.36" y1="58.02" x2="278.79" y2="58.02"/><line class="cls-4" x1="221.92" y1="113.51" x2="278.79" y2="58.02"/><line class="cls-4" x1="212.73" y1="166.7" x2="239.15" y2="223.35"/><line class="cls-4" x1="85.79" y1="286.36" x2="50.76" y2="337.23"/><line class="cls-4" x1="114.51" y1="286.94" x2="147.83" y2="337.23"/><line class="cls-4" x1="114.51" y1="286.94" x2="172.53" y2="374.23"/><path class="cls-4" d="M275.34,43c-35.15,0-70.65,31.37-70.65,62.43"/><line class="cls-5" x1="279.65" y1="53.11" x2="213.02" y2="119.58"/><line class="cls-5" x1="335.36" y1="52.53" x2="408.88" y2="110.34"/><line class="cls-5" x1="446.79" y1="164.1" x2="490.44" y2="230"/><line class="cls-5" x1="405.43" y1="166.41" x2="358.91" y2="223.06"/><line class="cls-5" x1="209" y1="169.88" x2="238.87" y2="223.06"/><line class="cls-5" x1="170.52" y1="162.94" x2="111.35" y2="234.62"/><line class="cls-5" x1="119.97" y1="279.71" x2="147.54" y2="336.94"/><line class="cls-5" x1="74.59" y1="277.98" x2="33.81" y2="336.94"/><ellipse class="cls-1" cx="100.44" cy="256.59" rx="33.31" ry="33.53"/><text class="cls-3" transform="translate(94.7 262.37) scale(0.99 1)">17</text><ellipse class="cls-1" cx="194.06" cy="139.24" rx="33.31" ry="33.53"/><ellipse class="cls-1" cx="424.96" cy="139.24" rx="33.31" ry="33.53"/><text class="cls-3" transform="translate(190.5 141.95) scale(0.99 1)">7</text><text class="cls-3" transform="translate(419.22 145.02) scale(0.99 1)">10</text><ellipse class="cls-2" cx="496.19" cy="256.59" rx="33.31" ry="33.53"/><text class="cls-3" transform="translate(490.67 262.27) scale(0.99 1)">50</text><rect class="cls-6" x="245.47" y="325.09" width="26.42" height="10.98"/><text class="cls-7" transform="translate(420.06 23.33) scale(0.99 1)"><tspan class="cls-8">P</tspan><tspan x="7.02" y="0">a</tspan><tspan class="cls-9" x="13.71" y="0">r</tspan><tspan x="18.11" y="0">e</tspan><tspan class="cls-10" x="25.06" y="0">n</tspan><tspan x="32.7" y="0">t node</tspan></text><text class="cls-7" transform="translate(419.87 45.33) scale(0.99 1)">Child node</text><ellipse class="cls-1" cx="404.29" cy="17.55" rx="5.74" ry="6.07"/><ellipse class="cls-2" cx="404.29" cy="39.52" rx="5.74" ry="6.07"/></g></g></svg>