<svg xmlns="http://www.w3.org/2000/svg" viewBox="0 0 922 699"><defs><style>.cls-1{fill:#960;}.cls-1,.cls-2,.cls-5{stroke:#000;stroke-miterlimit:10;}.cls-2{fill:#069;}.cls-3,.cls-7{font-size:24px;font-family:MyriadPro-Regular, Myriad Pro;}.cls-3,.cls-6{fill:#fff;}.cls-4,.cls-5{fill:none;}.cls-8{letter-spacing:-0.03em;}.cls-9{letter-spacing:0em;}.cls-10{letter-spacing:-0.01em;}.cls-11{letter-spacing:0em;}</style></defs><g id="Layer_2" data-name="Layer 2"><g id="Layer_1-2" data-name="Layer 1"><circle class="cls-1" cx="534.5" cy="58.5" r="58"/><circle class="cls-2" cx="428.5" cy="443.5" r="58"/><circle class="cls-2" cx="608.5" cy="443.5" r="58"/><circle class="cls-2" cx="58.5" cy="640.5" r="58"/><circle class="cls-2" cx="266.5" cy="640.5" r="58"/><text class="cls-3" transform="translate(535 61.85)">2</text><text class="cls-3" transform="translate(422.5 453.5)">12</text><text class="cls-3" transform="translate(598.5 453.5)">25</text><text class="cls-3" transform="translate(48.5 650.5)">55</text><text class="cls-3" transform="translate(256.85 652.59)">70</text><line class="cls-4" x1="486" y1="100" x2="386" y2="196"/><line class="cls-4" x1="572" y1="103" x2="711" y2="190"/><line class="cls-4" x1="503" y1="107" x2="370" y2="206"/><line class="cls-4" x1="363" y1="293" x2="422" y2="396"/><line class="cls-4" x1="486" y1="91" x2="194" y2="406"/><line class="cls-4" x1="486" y1="100" x2="386" y2="196"/><line class="cls-4" x1="477" y1="230" x2="476" y2="230"/><line class="cls-4" x1="486" y1="100" x2="485" y2="100"/><line class="cls-4" x1="386" y1="196" x2="485" y2="100"/><line class="cls-4" x1="370" y1="288" x2="416" y2="386"/><line class="cls-4" x1="149" y1="495" x2="88" y2="583"/><line class="cls-4" x1="199" y1="496" x2="257" y2="583"/><line class="cls-4" x1="199" y1="496" x2="300" y2="647"/><path class="cls-4" d="M479,74c-61.19,0-123,54.27-123,108"/><line class="cls-5" x1="486.5" y1="91.5" x2="370.5" y2="206.5"/><line class="cls-5" x1="583.5" y1="90.5" x2="711.5" y2="190.5"/><line class="cls-5" x1="777.5" y1="283.5" x2="853.5" y2="397.5"/><line class="cls-5" x1="705.5" y1="287.5" x2="624.5" y2="385.5"/><line class="cls-5" x1="363.5" y1="293.5" x2="415.5" y2="385.5"/><line class="cls-5" x1="296.5" y1="281.5" x2="193.5" y2="405.5"/><line class="cls-5" x1="208.5" y1="483.5" x2="256.5" y2="582.5"/><line class="cls-5" x1="129.5" y1="480.5" x2="58.5" y2="582.5"/><circle class="cls-1" cx="174.5" cy="443.5" r="58"/><text class="cls-3" transform="translate(164.5 453.5)">17</text><circle class="cls-1" cx="337.5" cy="240.5" r="58"/><circle class="cls-1" cx="739.5" cy="240.5" r="58"/><text class="cls-3" transform="translate(331.3 245.19)">7</text><text class="cls-3" transform="translate(729.5 250.5)">10</text><circle class="cls-2" cx="863.5" cy="443.5" r="58"/><text class="cls-3" transform="translate(853.89 453.33)">50</text><rect class="cls-6" x="427" y="562" width="46" height="19"/><text class="cls-7" transform="translate(730.96 40)"><tspan class="cls-8">P</tspan><tspan class="cls-9" x="12.14" y="0">a</tspan><tspan class="cls-10" x="23.71" y="0">r</tspan><tspan x="31.32" y="0">e</tspan><tspan class="cls-11" x="43.34" y="0">n</tspan><tspan x="56.57" y="0">t node</tspan></text><text class="cls-7" transform="translate(730.64 78.04)">Child node</text><ellipse class="cls-1" cx="703.5" cy="30" rx="10" ry="10.5"/><ellipse class="cls-2" cx="703.5" cy="68" rx="10" ry="10.5"/></g></g></svg>